<svg xmlns="http://www.w3.org/2000/svg" width="1030" height="1004" viewBox="0 0 1030 1004">
  <g id="Grupo_135149" data-name="Grupo 135149" transform="translate(10037 7956.7)">
    <rect id="Rectángulo_41616" data-name="Rectángulo 41616" width="1030" height="1004" rx="41" transform="translate(-10037 -7956.7)" fill="#f3f9ff"/>
    <g id="Grupo_135147" data-name="Grupo 135147" transform="translate(-10333.008 -10895.035)">
      <path id="Trazado_190830" data-name="Trazado 190830" d="M333.647,0C517.915,0,667.294,149.379,667.294,333.647S517.915,667.294,333.647,667.294,0,517.915,0,333.647,149.379,0,333.647,0Z" transform="translate(464.659 3140.257)" fill="none" stroke="#a188cc" stroke-width="1"/>
      <g id="Grupo_134889" data-name="Grupo 134889" transform="translate(486.788 3207.799)">
        <path id="Trazado_190632" data-name="Trazado 190632" d="M219.845,346.73a152.177,152.177,0,0,1,69.606-120.6l-12.086-20.949L209.742,88.065A311.437,311.437,0,0,0,60.429,346.73Z" transform="translate(-60.429 -88.065)" fill="#f1dd8e"/>
        <path id="Trazado_190633" data-name="Trazado 190633" d="M236.515,180.286l-12.086-20.949A176.294,176.294,0,0,0,142.72,300.882h24.189A152.177,152.177,0,0,1,236.515,180.286Z" transform="translate(-7.493 -42.217)" fill="#bf67a4"/>
      </g>
      <g id="Grupo_134890" data-name="Grupo 134890" transform="translate(457.38 3247.02)">
        <path id="Trazado_190634" data-name="Trazado 190634" d="M112.758,251.251A69.045,69.045,0,1,1,172.6,216.724,69.029,69.029,0,0,1,112.758,251.251Z" transform="translate(-41.747 -111.139)" fill="#7357a4"/>
        <circle id="Elipse_5364" data-name="Elipse 5364" cx="63.737" cy="63.737" r="63.737" transform="translate(0 15.627) rotate(-7.041)" fill="#dcdeff"/>
      </g>
      <g id="Grupo_134896" data-name="Grupo 134896" transform="translate(880.846 3207.799)">
        <g id="Grupo_134893" data-name="Grupo 134893">
          <path id="Trazado_190635" data-name="Trazado 190635" d="M379.936,88.065,312.314,205.186l-12.085,20.949a152.18,152.18,0,0,1,69.6,120.6H529.249A311.437,311.437,0,0,0,379.936,88.065Z" transform="translate(-300.229 -88.065)" fill="#f1dd8e"/>
          <path id="Trazado_190636" data-name="Trazado 190636" d="M312.314,159.338l-12.085,20.949a152.18,152.18,0,0,1,69.6,120.6h24.189A176.294,176.294,0,0,0,312.314,159.338Z" transform="translate(-300.229 -42.217)" fill="#bf67a4"/>
        </g>
        <g id="Grupo_134894" data-name="Grupo 134894" transform="translate(100.053 22.983)">
          <path id="Trazado_190637" data-name="Trazado 190637" d="M441.322,251.251a69.049,69.049,0,1,1,34.456-9.26A69.275,69.275,0,0,1,441.322,251.251Z" transform="translate(-353.956 -94.902)" fill="#7357a4"/>
          <circle id="Elipse_5365" data-name="Elipse 5365" cx="63.737" cy="63.737" r="63.737" transform="translate(0 109.717) rotate(-59.396)" fill="#dcdeff"/>
        </g>
      </g>
      <g id="Grupo_134900" data-name="Grupo 134900" transform="translate(444.487 3481.344)">
        <g id="Grupo_134897" data-name="Grupo 134897" transform="translate(42.301)">
          <path id="Trazado_190638" data-name="Trazado 190638" d="M219.845,254.528H60.429A311.437,311.437,0,0,0,209.742,513.193L277.365,396.07l12.086-20.948A152.174,152.174,0,0,1,219.845,254.528Z" transform="translate(-60.429 -254.528)" fill="#f1dd8e"/>
          <path id="Trazado_190639" data-name="Trazado 190639" d="M166.909,254.528H142.72A176.291,176.291,0,0,0,224.429,396.07l12.086-20.948A152.174,152.174,0,0,1,166.909,254.528Z" transform="translate(-7.493 -254.528)" fill="#bf67a4"/>
        </g>
        <g id="Grupo_134898" data-name="Grupo 134898" transform="translate(0 64.412)">
          <path id="Trazado_190640" data-name="Trazado 190640" d="M112.876,440.889a69.278,69.278,0,0,1-59.843-34.527A69.049,69.049,0,0,1,112.756,302.8,69.281,69.281,0,0,1,172.6,337.331a69.049,69.049,0,0,1-59.723,103.558Z" transform="translate(-28.854 -287.885)" fill="#7357a4"/>
          <circle id="Elipse_5366" data-name="Elipse 5366" cx="63.737" cy="63.737" r="63.737" transform="translate(0 116.751) rotate(-66.332)" fill="#dcdeff"/>
        </g>
      </g>
      <g id="Grupo_134904" data-name="Grupo 134904" transform="translate(880.846 3481.344)">
        <g id="Grupo_134901" data-name="Grupo 134901">
          <path id="Trazado_190641" data-name="Trazado 190641" d="M369.833,254.528a152.177,152.177,0,0,1-69.6,120.594l12.085,20.948,67.623,117.123A311.437,311.437,0,0,0,529.249,254.528Z" transform="translate(-300.229 -254.528)" fill="#f1dd8e"/>
          <path id="Trazado_190642" data-name="Trazado 190642" d="M369.833,254.528a152.177,152.177,0,0,1-69.6,120.594l12.085,20.948a176.291,176.291,0,0,0,81.709-141.542Z" transform="translate(-300.229 -254.528)" fill="#bf67a4"/>
        </g>
        <g id="Grupo_134902" data-name="Grupo 134902" transform="translate(105.031 66.045)">
          <path id="Trazado_190643" data-name="Trazado 190643" d="M441.2,440.889a69.039,69.039,0,1,1,59.843-34.527A68.995,68.995,0,0,1,441.2,440.889Z" transform="translate(-358.934 -289.518)" fill="#7357a4"/>
          <circle id="Elipse_5367" data-name="Elipse 5367" cx="63.737" cy="63.737" r="63.737" transform="translate(0 119.027) rotate(-69.025)" fill="#dcdeff"/>
        </g>
      </g>
      <g id="Grupo_134908" data-name="Grupo 134908" transform="translate(648.965 3609.395)">
        <g id="Grupo_134905" data-name="Grupo 134905">
          <path id="Trazado_190644" data-name="Trazado 190644" d="M390.224,353.4l-12.1-20.949a152.619,152.619,0,0,1-139.278,0l-12.1,20.949L159.12,470.522a312.109,312.109,0,0,0,298.725,0Z" transform="translate(-159.12 -332.452)" fill="#f1dd8e"/>
          <path id="Trazado_190645" data-name="Trazado 190645" d="M351.65,332.452a152.619,152.619,0,0,1-139.278,0L200.27,353.4a176.743,176.743,0,0,0,163.483,0Z" transform="translate(-132.649 -332.452)" fill="#bf67a4"/>
        </g>
        <g id="Grupo_134906" data-name="Grupo 134906" transform="translate(59.225 86)">
          <path id="Trazado_190646" data-name="Trazado 190646" d="M277.036,535.693a69.032,69.032,0,1,1,69.031-69.031A69.11,69.11,0,0,1,277.036,535.693Z" transform="translate(-186.899 -376.524)" fill="#7357a4"/>
          <circle id="Elipse_5368" data-name="Elipse 5368" cx="63.737" cy="63.737" r="63.737" transform="translate(0 90.137) rotate(-45)" fill="#dcdeff"/>
        </g>
      </g>
      <g id="Grupo_134912" data-name="Grupo 134912" transform="translate(648.965 3072.16)">
        <g id="Grupo_134909" data-name="Grupo 134909" transform="translate(0 90.114)">
          <path id="Trazado_190647" data-name="Trazado 190647" d="M308.482,60.366A310.343,310.343,0,0,0,159.12,98.426l67.621,117.123,12.1,20.947a152.619,152.619,0,0,1,139.278,0l12.1-20.947L457.845,98.426A310.343,310.343,0,0,0,308.482,60.366Z" transform="translate(-159.12 -60.366)" fill="#f1dd8e"/>
          <path id="Trazado_190648" data-name="Trazado 190648" d="M282.012,142.607a175.7,175.7,0,0,0-81.742,20.038l12.1,20.947a152.619,152.619,0,0,1,139.278,0l12.1-20.947A175.7,175.7,0,0,0,282.012,142.607Z" transform="translate(-132.649 -7.462)" fill="#bf67a4"/>
        </g>
        <g id="Grupo_134910" data-name="Grupo 134910" transform="translate(59.247 0)">
          <circle id="Elipse_5369" data-name="Elipse 5369" cx="69.032" cy="69.032" r="69.032" transform="translate(0 52.565) rotate(-22.379)" fill="#7357a4"/>
          <circle id="Elipse_5370" data-name="Elipse 5370" cx="63.737" cy="63.737" r="63.737" transform="matrix(0.226, -0.974, 0.974, 0.226, 13.623, 137.799)" fill="#dcdeff"/>
        </g>
      </g>
      <g id="Grupo_134914" data-name="Grupo 134914" transform="translate(735.862 3541.273)">
        <g id="Grupo_134913" data-name="Grupo 134913">
          <text id="CORE_VALUES" data-name="CORE
VALUES" transform="translate(56 25)" fill="#fff" font-size="26" font-family="Montserrat-Black, Montserrat" font-weight="800"><tspan x="-38.935" y="0">CORE</tspan><tspan x="-55.614" y="26">VALUES</tspan></text>
          <path id="Trazado_190649" data-name="Trazado 190649" d="M217.456,299.457c-5.492,0-5.5,8.534,0,8.534S222.956,299.457,217.456,299.457Z" transform="translate(-211.143 -285.555)" fill="#fff"/>
          <path id="Trazado_190650" data-name="Trazado 190650" d="M285.572,299.457c5.49,0,5.5,8.534,0,8.534S280.072,299.457,285.572,299.457Z" transform="translate(-167.325 -285.555)" fill="#fff"/>
        </g>
      </g>
      <g id="Grupo_134980" data-name="Grupo 134980" transform="translate(624.873 3340.351)">
        <g id="Grupo_134918" data-name="Grupo 134918" transform="translate(45.934 34.443)">
          <path id="Trazado_190651" data-name="Trazado 190651" d="M115.877,57.5s-36.2,4.354-43.252,43.89,20.4,22.01,34.222,37.022,11.217,53.8,31.12,38.287,39.157-17.26,57.621-3.045,27.786,18.166,46.916-.3,37.706-29.086,50.351-26.321,19.085-23.056,8.815-43.044S282.389,87.51,288.578,79.423s-5.867-32.074-32.71-26.886-59.376,25.115-77.783,17.754S147.364,49.143,115.877,57.5Z" transform="translate(-63.187 -51.81)" fill="none"/>
          <g id="Grupo_134916" data-name="Grupo 134916" transform="translate(172.836 85.588)">
            <path id="Trazado_190652" data-name="Trazado 190652" d="M496.91,348.941h62.71s7.561-5.782,7.116-12.453-13.343,1.334-11.119-2.669,6.671-2.668,8.45-10.674-15.121-3.113-5.782-10.674,16.011-12.008,12.9-17.345-11.119.445-8.006-4.892,7.561-24.906-.889-18.68-6.671,21.793-8.451,16.456-8.45-7.116-10.674-.445-3.558,27.13-5.782,20.014-8.005-16.011-11.563-5.337-4,21.793-5.782,16.011-21.793-6.671-20.459,8.005C499.578,326.259,483.567,334.709,496.91,348.941Z" transform="translate(-491.6 -270.345)" fill="#a3b3e5"/>
            <path id="Trazado_190653" data-name="Trazado 190653" d="M581.55,366.462l11-2.722-.085-.345-10.672,2.64c5.03-6.517,9.729-12.409,12.646-15.608l-.262-.239c-4.677,5.128-13.917,17.154-21.771,27.6l-2.075-18.667-.353.04L572.1,378.2c-7.163,9.534-13.1,17.649-13.222,17.819l.286.209c.073-.1,2.158-2.951,5.319-7.221l.005.225,22.206-.5-.008-.355-22.1.5c4.422-5.973,10.9-14.658,16.95-22.5Z" transform="translate(-532.528 -318.918)" fill="#f3f5ff"/>
          </g>
          <g id="Grupo_134917" data-name="Grupo 134917" transform="translate(49.204 73.204)">
            <path id="Trazado_190654" data-name="Trazado 190654" d="M262.8,329.7H190.209s-8.752-6.693-8.237-14.415,15.445,1.545,12.871-3.089-7.722-3.089-9.782-12.356,17.5-3.6,6.693-12.356-18.534-13.9-14.93-20.079,12.871.515,9.267-5.663-8.752-28.831,1.03-21.623,7.722,25.227,9.782,19.049,9.782-8.238,12.356-.515,4.119,31.4,6.693,23.167,9.267-18.534,13.385-6.178,4.634,25.227,6.693,18.534,25.227-7.723,23.682,9.267C259.711,303.448,278.245,313.23,262.8,329.7Z" transform="translate(-175.927 -238.723)" fill="#a3b3e5"/>
            <path id="Trazado_190655" data-name="Trazado 190655" d="M245.362,349.985l-12.737-3.15.1-.4,12.353,3.056c-5.822-7.544-11.262-14.364-14.639-18.067l.3-.277c5.414,5.937,16.11,19.857,25.2,31.95l2.4-21.608.408.046L256.3,363.576c8.292,11.036,15.161,20.43,15.3,20.627l-.331.242c-.085-.116-2.5-3.416-6.157-8.359l-.006.26-25.7-.583.009-.411,25.588.58c-5.119-6.913-12.624-16.968-19.62-26.043Z" transform="translate(-209.089 -294.95)" fill="#f3f5ff"/>
          </g>
          <path id="Trazado_190656" data-name="Trazado 190656" d="M62.628,363.956a74,74,0,0,1-12.335-22.2l17.269,11.1s-8.881-25.41-8.634-39.225L72.5,330.9s-2.96-25.534,0-35.957c0,0,10.361,22.635,12.829,37.93,0,0,2.467-21.71,5.921-27.631,0,0,5.921,17.331,5.427,24.208l6.414-13.846s6.907,17.763,0,27.631c0,0,2.96.493,9.868-10.361,0,0,2.467,22.2-7.4,31.084Z" transform="translate(-50.293 -199.72)" fill="#bbc9ef"/>
          <path id="Trazado_190657" data-name="Trazado 190657" d="M439.024,356.109a79.422,79.422,0,0,0,13.238-23.828l-18.533,11.914s9.531-27.27,9.266-42.1l-14.562,18.533s3.177-27.4,0-38.589c0,0-11.12,24.291-13.768,40.707,0,0-2.648-23.3-6.354-29.653,0,0-6.354,18.6-5.825,25.98l-6.884-14.86s-7.413,19.063,0,29.653c0,0-3.177.53-10.59-11.12,0,0-2.648,23.829,7.943,33.36Z" transform="translate(-253.742 -191.873)" fill="#bbc9ef"/>
          <path id="Trazado_190658" data-name="Trazado 190658" d="M613.26,434.19a25.513,25.513,0,0,1-4.254-7.657l5.955,3.828s-3.063-8.763-2.977-13.527l4.679,5.955s-1.021-8.805,0-12.4c0,0,3.573,7.806,4.424,13.08,0,0,.851-7.487,2.042-9.528,0,0,2.042,5.977,1.872,8.348l2.212-4.775s2.382,6.125,0,9.528c0,0,1.021.17,3.4-3.573,0,0,.851,7.657-2.552,10.719Z" transform="translate(-390.188 -269.954)" fill="#d4def4"/>
          <path id="Trazado_190659" data-name="Trazado 190659" d="M79.743,434.19A25.512,25.512,0,0,0,84,426.533l-5.955,3.828s3.063-8.763,2.978-13.527L76.34,422.79s1.021-8.805,0-12.4c0,0-3.573,7.806-4.424,13.08,0,0-.851-7.487-2.042-9.528,0,0-2.042,5.977-1.872,8.348l-2.212-4.775s-2.382,6.125,0,9.528c0,0-1.021.17-3.4-3.573,0,0-.851,7.657,2.552,10.719Z" transform="translate(-57.593 -269.954)" fill="#d4def4"/>
        </g>
        <g id="Grupo_134931" data-name="Grupo 134931" transform="translate(55.372 42.069)">
          <g id="Grupo_134930" data-name="Grupo 134930" transform="translate(14.616 22.467)">
            <g id="Grupo_134921" data-name="Grupo 134921" transform="translate(5.089 118.806)">
              <g id="Grupo_134919" data-name="Grupo 134919" transform="translate(22.04)">
                <path id="Trazado_190660" data-name="Trazado 190660" d="M185.035,435.583l.715,5.341a3.1,3.1,0,0,0,3.515,3.051c3.454-.223,2.935-2.545,2.935-2.545L191.271,432Z" transform="translate(-183.447 -431.996)" fill="#e9beb7"/>
                <path id="Trazado_190661" data-name="Trazado 190661" d="M181.785,459.588h16.38a2.888,2.888,0,0,0-2.377-3.083c-2.637-.594-4.252-5.351-6.193-4.272s-2.8,2.044-4.393,1.449-2.006-.706-2.823.223S180.039,459.588,181.785,459.588Z" transform="translate(-180.981 -444.211)" fill="#4aad95"/>
                <path id="Trazado_190662" data-name="Trazado 190662" d="M191.5,437.855l-6.27,2.723-.192-1.431Z" transform="translate(-183.448 -435.56)" fill="#dc7660"/>
              </g>
              <g id="Grupo_134920" data-name="Grupo 134920" transform="translate(0 0.446)">
                <path id="Trazado_190663" data-name="Trazado 190663" d="M130.433,442.729l.654-9.6,6.742,1.114-.391,7.945Z" transform="translate(-128.19 -433.134)" fill="#e9beb7"/>
                <path id="Trazado_190664" data-name="Trazado 190664" d="M136.852,459.255a9.781,9.781,0,0,0-1.332-4.212c-.273-1.53-.817-3.854-1.555-3.475l-.161,1.713a5.506,5.506,0,0,0-3.025-.822,5.362,5.362,0,0,0-3.5,1.168l0-.006-.183-1.942c-1.086-.557-1.752,4.743-1.752,4.743l0,0a10.183,10.183,0,0,0-.645,2.837Z" transform="translate(-124.706 -444.323)" fill="#4aad95"/>
                <path id="Trazado_190665" data-name="Trazado 190665" d="M131.67,439.482l6.73,2.312v-1.418Z" transform="translate(-128.943 -436.996)" fill="#dc7660"/>
              </g>
            </g>
            <path id="Trazado_190666" data-name="Trazado 190666" d="M198.149,283.053s-.249,7-2.9,7.448l-.646-6.762Z" transform="translate(-162.139 -222.58)" fill="#e9beb7"/>
            <g id="Grupo_134922" data-name="Grupo 134922" transform="translate(14.387 20.915)">
              <path id="Trazado_190667" data-name="Trazado 190667" d="M158.871,186.857c-1.189-1.226-1.657-4.807-1.657-4.807h-7.1s-.469,3.582-1.657,4.807c0,0-.546,4.606,5.206,4.606S158.871,186.857,158.871,186.857Z" transform="translate(-148.446 -182.05)" fill="#db9292"/>
              <path id="Trazado_190668" data-name="Trazado 190668" d="M153.666,182.05h-3.549s-.469,3.582-1.657,4.807a4.079,4.079,0,0,0,3.216,4.377l2.457-3.589s-1.808-.249-1.251-1.392,4.5-3.2,4.5-3.2h0c-.116-.587-.171-1-.171-1Z" transform="translate(-148.446 -182.05)" fill="#c67d7d"/>
            </g>
            <path id="Trazado_190669" data-name="Trazado 190669" d="M178.647,160.152Z" transform="translate(-152.432 -147.813)" fill="none"/>
            <g id="Grupo_134924" data-name="Grupo 134924" transform="translate(0 22.459)">
              <path id="Trazado_190670" data-name="Trazado 190670" d="M127.483,185.991s-8.862,2.049-10.051,3.163c0,0-5.726,17.039-5.72,20.6,0,1.272,2.526,5.274,5.943,5.423l-.669,13.149h28.75l-.509-3.79,5.189-1.113s-4.68-32.39-5.423-33.355-9.84-4.081-9.84-4.081S132.259,195.133,127.483,185.991Z" transform="translate(-111.712 -185.991)" fill="#b13e8d"/>
              <g id="Grupo_134923" data-name="Grupo 134923" transform="translate(4.346 0.546)">
                <path id="Trazado_190671" data-name="Trazado 190671" d="M129.866,193.223l2.13-5.837-2.687,5.243-1.189.186s-2.228,5.832-3.009,8.469-2.3,10.177-2.3,10.177c.223-1.374,5.646-18.089,5.646-18.089Z" transform="translate(-122.809 -187.386)" fill="#b13e8d"/>
                <path id="Trazado_190672" data-name="Trazado 190672" d="M138.253,203.974s-2.08,21.506-11.366,21.989a8.082,8.082,0,0,0,5.534-1.708c2.452-2.043,5.145-10.419,6.816-20.281l-1.764-.26Z" transform="translate(-125.29 -197.319)" fill="#b13e8d"/>
                <path id="Trazado_190673" data-name="Trazado 190673" d="M186.636,205.535c-.745,4.281,4.124,30.895,4.124,30.895l.907-.195C186.687,207.941,186.624,205.705,186.636,205.535Z" transform="translate(-161.591 -198.427)" fill="#b13e8d"/>
                <path id="Trazado_190674" data-name="Trazado 190674" d="M186.756,205.514l0-.014A.047.047,0,0,0,186.756,205.514Z" transform="translate(-161.711 -198.406)" fill="#3a8e76"/>
              </g>
            </g>
            <g id="Grupo_134925" data-name="Grupo 134925" transform="translate(4.197 64.798)">
              <path id="Trazado_190675" data-name="Trazado 190675" d="M124.324,294.1l-1.894,56.459,12.592,1.671,3.677-48.473,5.572,48.473,11.7-2.34-4.9-55.79Z" transform="translate(-122.43 -294.097)" fill="#6836bf"/>
              <path id="Trazado_190676" data-name="Trazado 190676" d="M127.266,294.1l26.855,1.857-.111-1.857Z" transform="translate(-125.372 -294.097)" fill="#134360"/>
            </g>
            <g id="Grupo_134929" data-name="Grupo 134929" transform="translate(9.747)">
              <g id="Grupo_134926" data-name="Grupo 134926" transform="translate(0 11.443)">
                <path id="Trazado_190677" data-name="Trazado 190677" d="M137.375,158.036c-.031.016-.065.026-.094.045a1.961,1.961,0,0,0-.64,2.029,4.745,4.745,0,0,0,.717,1.827,3.457,3.457,0,0,0,2.919,1.857,1.4,1.4,0,0,0,.286-.063,1.275,1.275,0,0,0,.273-.128c.939-.605.9-2.331-.077-3.855a5.05,5.05,0,0,0-.857-1.015l-.016-.013A2.328,2.328,0,0,0,137.375,158.036Z" transform="translate(-136.6 -157.873)" fill="#db9292"/>
                <path id="Trazado_190678" data-name="Trazado 190678" d="M178.363,161.929a4.627,4.627,0,0,0,.745-2.045,2.045,2.045,0,0,0-.432-1.608,1.266,1.266,0,0,0-.236-.2,2.194,2.194,0,0,0-2.5.55c-.04.034-.082.064-.122.1a5.05,5.05,0,0,0-.857,1.015c-.981,1.524-1.016,3.25-.077,3.855a1.284,1.284,0,0,0,.273.128,1.465,1.465,0,0,0,.512.076A3.675,3.675,0,0,0,178.363,161.929Z" transform="translate(-159.476 -157.865)" fill="#db9292"/>
              </g>
              <g id="Grupo_134928" data-name="Grupo 134928" transform="translate(1.656 6.917)">
                <path id="Trazado_190679" data-name="Trazado 190679" d="M155.7,154.59l-.16-8.282-13.175.255.16,8.282a6.549,6.549,0,0,0,1.4,3.916,33,33,0,0,1-1.23,4.458c-.78,2.006-1.857,5.014-1.857,5.014l5.126.557s1.077-4.086,2.377-5.237,4.755-2.228,5.015-2.674.267-.8-.257-.921c.15-.115.294-.237.434-.364A6.558,6.558,0,0,0,155.7,154.59Z" transform="translate(-140.829 -146.308)" fill="#e9beb7"/>
                <g id="Grupo_134927" data-name="Grupo 134927" transform="translate(2.992 10.755)">
                  <path id="Trazado_190680" data-name="Trazado 190680" d="M157.763,176.555a13.487,13.487,0,0,0-2.195.208c-1.456.185-4.484.571-4.67.282-.064-.363-.955-3.264-1.713-3.277h-.006c-.253,0-.432.269-.55.825l-.158.876a.111.111,0,0,0,.219.04l.157-.874c.123-.581.272-.645.332-.645h0c.481.008,1.379,2.424,1.5,3.093.034.2.333.284.949.284a38.071,38.071,0,0,0,3.969-.384,17.314,17.314,0,0,1,2.117-.212.11.11,0,0,0,.134-.084A.112.112,0,0,0,157.763,176.555Z" transform="translate(-148.47 -173.768)" fill="#dc7660"/>
                  <path id="Trazado_190681" data-name="Trazado 190681" d="M162.743,184.835c-.138.026-3.392.654-4.573,1.806a.111.111,0,0,0,0,.158.113.113,0,0,0,.08.033.109.109,0,0,0,.078-.032c1.133-1.105,4.426-1.74,4.459-1.747a.111.111,0,0,0-.042-.219Z" transform="translate(-154.351 -180.499)" fill="#dc7660"/>
                </g>
              </g>
              <path id="Trazado_190682" data-name="Trazado 190682" d="M153,137.593s-5.682,1.857-4.865.817c0,0-5.126,1.487-4.086.316,0,0-2.637,2.367-2.563,1.248l-.552,5.387-.829-4.884a5.258,5.258,0,0,0-1.675-.314s-1.013-5.282,0-6.582,1.2-.966,1.2-.966,5.279-4.383,8.843-3.937,2.226,1.151,2.226,1.151,3.12-.111,4.717,1.6.611,8.709.611,8.709a3.761,3.761,0,0,0-1.756.438,38.074,38.074,0,0,1-.457,4.788s-.293-5.243-.553-6.246C153.264,139.116,151.666,138.967,153,137.593Z" transform="translate(-137.442 -128.647)" fill="#2c193f"/>
            </g>
          </g>
          <path id="Trazado_190683" data-name="Trazado 190683" d="M100.039,84.1a12.837,12.837,0,1,0-11.078,12.7l.048.121,7.5,3.738L93.57,95.241A12.815,12.815,0,0,0,100.039,84.1Z" transform="translate(-74.393 -71.282)" fill="#f1da92"/>
          <text id="_" data-name="?" transform="translate(8.54 18.894)" fill="#fff" font-size="20" font-family="SegoeUI, Segoe UI"><tspan x="0" y="0">?</tspan></text>
        </g>
        <g id="Grupo_134942" data-name="Grupo 134942" transform="translate(153.898 45.75)">
          <g id="Grupo_134941" data-name="Grupo 134941" transform="translate(0 17.971)">
            <path id="Trazado_190684" data-name="Trazado 190684" d="M459.463,287.718s.472,6.5-3.254,6.733l-1.189-6.733Z" transform="translate(-404.476 -224.603)" fill="#e9beb7"/>
            <g id="Grupo_134935" data-name="Grupo 134935" transform="translate(25.415)">
              <g id="Grupo_134932" data-name="Grupo 134932" transform="translate(5.618 22.9)">
                <path id="Trazado_190685" data-name="Trazado 190685" d="M414.258,185.036h-6.547s-.869,3.343-2.512,4.532c0,0,.957,7.5,5.785,7.5s5.785-7.5,5.785-7.5C415.126,188.379,414.258,185.036,414.258,185.036Z" transform="translate(-405.199 -185.036)" fill="#db9292"/>
                <path id="Trazado_190686" data-name="Trazado 190686" d="M418.417,186.473h0a13.912,13.912,0,0,1-.482-1.437h-6.547s-.05.191-.145.491C411.6,185.927,413.917,188.2,418.417,186.473Z" transform="translate(-408.875 -185.036)" fill="#c67d7d"/>
              </g>
              <g id="Grupo_134934" data-name="Grupo 134934">
                <g id="Grupo_134933" data-name="Grupo 134933" transform="translate(1.226 13.527)">
                  <path id="Trazado_190687" data-name="Trazado 190687" d="M394.784,161.28c-.032.017-.067.027-.1.047a2.025,2.025,0,0,0-.661,2.095,4.909,4.909,0,0,0,.74,1.885,3.568,3.568,0,0,0,3.013,1.917,1.426,1.426,0,0,0,.3-.065,1.317,1.317,0,0,0,.282-.132c.97-.624.934-2.406-.079-3.98a5.226,5.226,0,0,0-.884-1.048l-.016-.013A2.4,2.4,0,0,0,394.784,161.28Z" transform="translate(-393.984 -161.112)" fill="#db9292"/>
                  <path id="Trazado_190688" data-name="Trazado 190688" d="M437.1,165.3a4.779,4.779,0,0,0,.769-2.111,2.114,2.114,0,0,0-.446-1.661,1.324,1.324,0,0,0-.244-.208,2.263,2.263,0,0,0-2.58.568c-.042.035-.085.065-.126.1a5.225,5.225,0,0,0-.884,1.048c-1.014,1.574-1.049,3.356-.079,3.98a1.3,1.3,0,0,0,.282.132,1.511,1.511,0,0,0,.528.078A3.792,3.792,0,0,0,437.1,165.3Z" transform="translate(-417.599 -161.104)" fill="#db9292"/>
                </g>
                <path id="Trazado_190689" data-name="Trazado 190689" d="M409.482,164.655a6.742,6.742,0,0,0,3.454-1.031c.18-.113.357-.231.526-.359s.3-.245.448-.376a6.771,6.771,0,0,0,2.242-5.166l-.165-8.55-13.6.263.165,8.55a6.764,6.764,0,0,0,1.458,4.067,6.838,6.838,0,0,0,.842.891,6.937,6.937,0,0,0,.951.706A6.738,6.738,0,0,0,409.482,164.655Z" transform="translate(-397.869 -140.319)" fill="#e9beb7"/>
                <path id="Trazado_190690" data-name="Trazado 190690" d="M413.174,134.835a2.947,2.947,0,0,0-2.364-2.888,3.327,3.327,0,0,0-3.1-3.81,3.35,3.35,0,0,0-5.22-.577,3.347,3.347,0,0,0-5.422,1.357,3.344,3.344,0,0,0-4.394,3.98,2.6,2.6,0,0,0-.429,4.786,2.6,2.6,0,0,0,2.436,3.512s.592,4.551,1.1,4.739c.466.171-.023-3.546.085-5.031a2.614,2.614,0,0,0,1.008-.918,2.224,2.224,0,0,0,1.218-1.533,3.117,3.117,0,0,1,4.359.838,2.218,2.218,0,0,0,1.965-1.2,2.59,2.59,0,0,0,3.022,1.325,2.609,2.609,0,0,0,1.363,1.336c.159,1.361-.384,5.362.1,5.185.512-.188,1.1-4.739,1.1-4.739a1.967,1.967,0,0,0,.019-.245,2.6,2.6,0,0,0,2.075-3.842A2.94,2.94,0,0,0,413.174,134.835Z" transform="translate(-390.854 -126.566)" fill="#2c193f"/>
              </g>
            </g>
            <g id="Grupo_134936" data-name="Grupo 134936" transform="translate(44.198 119.58)">
              <path id="Trazado_190691" data-name="Trazado 190691" d="M442.869,435.481l.715,5.341a3.1,3.1,0,0,0,3.515,3.05c3.455-.223,2.935-2.544,2.935-2.544l-.929-9.435Z" transform="translate(-441.281 -431.894)" fill="#e9beb7"/>
              <path id="Trazado_190692" data-name="Trazado 190692" d="M439.618,459.487H456a2.888,2.888,0,0,0-2.377-3.083c-2.637-.594-4.252-5.35-6.193-4.272s-2.8,2.044-4.393,1.449-2.006-.705-2.823.223S437.872,459.487,439.618,459.487Z" transform="translate(-438.814 -444.109)" fill="#2c193f"/>
              <path id="Trazado_190693" data-name="Trazado 190693" d="M444.375,451.117l6.357-.768-6.258,1.512Z" transform="translate(-442.197 -443.121)" fill="#dc7660"/>
            </g>
            <g id="Grupo_134937" data-name="Grupo 134937" transform="translate(16.027 119.58)">
              <path id="Trazado_190694" data-name="Trazado 190694" d="M395.551,435.481l-.715,5.341a3.1,3.1,0,0,1-3.515,3.05c-3.454-.223-2.934-2.544-2.934-2.544l.929-9.435Z" transform="translate(-379.948 -431.894)" fill="#e9beb7"/>
              <path id="Trazado_190695" data-name="Trazado 190695" d="M383.271,459.487H366.89a2.888,2.888,0,0,1,2.377-3.083c2.637-.594,4.253-5.35,6.194-4.272s2.8,2.044,4.392,1.449,2.006-.705,2.823.223S385.016,459.487,383.271,459.487Z" transform="translate(-366.883 -444.109)" fill="#2c193f"/>
              <path id="Trazado_190696" data-name="Trazado 190696" d="M389.095,449.229l6.28,1.459.07-.729Z" transform="translate(-380.396 -442.44)" fill="#dc7660"/>
            </g>
            <path id="Trazado_190697" data-name="Trazado 190697" d="M341.935,223.992s-1.083-2.378-2.465-2.812-3.958-.6-5.131-1.142-3.6-2.121-4.094-1.284,3.311,2.848,3.311,2.848-3.756-.127-4.327-.54-2.6-3.443-3.188-2.868,2.265,4.506,2.98,5.022,6.9,1.639,7.559,1.962a10.044,10.044,0,0,1,.985.538Z" transform="translate(-325.962 -182.264)" fill="#e9beb7"/>
            <path id="Trazado_190698" data-name="Trazado 190698" d="M437.39,163.465Z" transform="translate(-393.749 -149.013)" fill="none"/>
            <g id="Grupo_134938" data-name="Grupo 134938" transform="translate(18.156 66.897)">
              <path id="Trazado_190699" data-name="Trazado 190699" d="M378.131,297.375l-5.81,58.718,16.269,1.869,3.8-51.248,4.225,51.814,15.848-1.915-6.906-59.238Z" transform="translate(-372.321 -297.375)" fill="#f7ca18"/>
              <path id="Trazado_190700" data-name="Trazado 190700" d="M387.156,297.375l27.861,3.691-.43-3.691Z" transform="translate(-381.346 -297.375)" fill="#f7ca18"/>
            </g>
            <g id="Grupo_134940" data-name="Grupo 134940" transform="translate(9.496 24.337)">
              <path id="Trazado_190701" data-name="Trazado 190701" d="M373.775,188.706s-8.189,2.667-9.452,4.153-4.383,17.012-4.383,17.012l-4.309-6.24-5.423,4.383s10.938,16.863,11.783,17.012a3.773,3.773,0,0,0,1.96-.446l-.891,6.686h29.864v-2.9l5.126-1.634s-2.6-32.315-5.794-34.024-10.969-4-10.969-4a10.235,10.235,0,0,1-3.756,4.58A20.838,20.838,0,0,1,373.775,188.706Z" transform="translate(-350.208 -188.706)" fill="#b13e8d"/>
              <g id="Grupo_134939" data-name="Grupo 134939" transform="translate(9.732 9.815)">
                <path id="Trazado_190702" data-name="Trazado 190702" d="M450.341,214.678a5.263,5.263,0,0,0-.251-.911S450.175,214.022,450.341,214.678Z" transform="translate(-420.703 -213.767)" fill="#b13e8d"/>
                <path id="Trazado_190703" data-name="Trazado 190703" d="M455.419,244.6c-2.491-18.851-4.1-26.19-4.688-28.509,1.127,5.31,3.346,28.937,3.346,28.937Z" transform="translate(-421.093 -215.181)" fill="#b13e8d"/>
                <path id="Trazado_190704" data-name="Trazado 190704" d="M381.484,239.826l4.2-26.059-5.31,26.462Z" transform="translate(-378.293 -213.767)" fill="#b13e8d"/>
                <path id="Trazado_190705" data-name="Trazado 190705" d="M377.96,248.641a4.8,4.8,0,0,0-2.9-5.894A6.51,6.51,0,0,1,377.96,248.641Z" transform="translate(-375.056 -231.397)" fill="#b13e8d"/>
              </g>
            </g>
          </g>
          <path id="Trazado_190706" data-name="Trazado 190706" d="M456.4,93.5a12.84,12.84,0,1,1,11.078,12.7l-.049.121-7.5,3.737,2.942-5.424A12.815,12.815,0,0,1,456.4,93.5Z" transform="translate(-405.311 -80.681)" fill="#f1da92"/>
          <text id="_2" data-name="?" transform="translate(59.558 19.24)" fill="#fff" font-size="20" font-family="SegoeUI, Segoe UI"><tspan x="0" y="0">?</tspan></text>
        </g>
        <g id="Grupo_134958" data-name="Grupo 134958" transform="translate(110.834 112.893)">
          <g id="Grupo_134956" data-name="Grupo 134956" transform="translate(0 17.558)">
            <g id="Grupo_134945" data-name="Grupo 134945" transform="translate(16.163)">
              <g id="Grupo_134943" data-name="Grupo 134943" transform="translate(3.115 10.199)">
                <path id="Trazado_190707" data-name="Trazado 190707" d="M268.485,324.018l-.014-.014a2.229,2.229,0,0,0-2.315-.927c-.031.012-.064.018-.095.033a1.878,1.878,0,0,0-.833,1.86,4.552,4.552,0,0,0,.481,1.817,3.312,3.312,0,0,0,2.573,2.089h0a1.373,1.373,0,0,0,.279-.029,1.24,1.24,0,0,0,.274-.092c.961-.472,1.119-2.118.352-3.678A4.851,4.851,0,0,0,268.485,324.018Z" transform="translate(-265.226 -322.99)" fill="#db9292"/>
                <path id="Trazado_190708" data-name="Trazado 190708" d="M305.012,328.213a1.244,1.244,0,0,0-.2-.218,2.1,2.1,0,0,0-2.439.248c-.042.028-.085.051-.127.081a4.833,4.833,0,0,0-.927.871c-1.1,1.343-1.325,2.981-.5,3.66a1.228,1.228,0,0,0,.246.152,1.4,1.4,0,0,0,.479.128h0a3.523,3.523,0,0,0,2.77-1.482,4.436,4.436,0,0,0,.934-1.864A1.961,1.961,0,0,0,305.012,328.213Z" transform="translate(-286.574 -325.858)" fill="#db9292"/>
              </g>
              <g id="Grupo_134944" data-name="Grupo 134944" transform="translate(7.561 19.983)">
                <path id="Trazado_190709" data-name="Trazado 190709" d="M283.659,348.121l-2.7.437v-.007l-2.542-.578s-.058,2.64-1.841,3.587c0,0-.036,4.9,4.379,4.9v.007c4.42,0,4.383-4.9,4.383-4.9C283.56,350.62,283.659,348.121,283.659,348.121Z" transform="translate(-276.58 -347.973)" fill="#db9292"/>
                <path id="Trazado_190710" data-name="Trazado 190710" d="M288.148,351.567c-1.783-.947-1.684-3.446-1.684-3.446l-2.7.437v-.007l-2.542-.578s0,.158-.035.409a7.21,7.21,0,0,0,4.126,1.536s-1.045,1.621-.265,2.884l-1.292,2.384,1.857.921C288.172,354.974,288.148,351.567,288.148,351.567Z" transform="translate(-279.386 -347.973)" fill="#c67d7d"/>
              </g>
              <path id="Trazado_190711" data-name="Trazado 190711" d="M278.4,327.906a6.256,6.256,0,0,0,3.294-.581c.179-.085.354-.175.523-.275s.306-.193.453-.3a6.282,6.282,0,0,0,2.619-4.522l.761-7.9-12.566-1.211-.761,7.9a6.314,6.314,0,0,0,1.591,4.816,6.387,6.387,0,0,0,.8.752A6.256,6.256,0,0,0,278.4,327.906Z" transform="translate(-266.655 -306.785)" fill="#e9beb7"/>
              <path id="Trazado_190712" data-name="Trazado 190712" d="M279.673,310.73c.922-6.018-1.373-12.881-8.2-13.673s-9.8,2.835-10.663,8.131c-1,6.124-3.535,8.621-3.535,8.621s2.661,5.984,7.119,5.705c.119-.007.224-.007.326,0,.641-.143,1.128-.245,1.352-.291a5.615,5.615,0,0,0,.571-1.878,6.3,6.3,0,0,1-.907-.592,6.382,6.382,0,0,1-.8-.752,6.283,6.283,0,0,1-1.489-2.962,3.312,3.312,0,0,1-2.573-2.089,4.553,4.553,0,0,1-.481-1.817,1.878,1.878,0,0,1,.833-1.86c.031-.015.063-.021.095-.033a1.9,1.9,0,0,1,1.823.464c0,.07-.06,5.49.217,4.838l0-.009c.281-.68.9-5.105.9-5.105l.613-.753c-.3.978,2.128-.316,2.128-.316-.916,1.128,4.176.54,4.176.54-.533,1,4.519-.654,4.519-.654a4.015,4.015,0,0,0,0,1.59h0s-.327,5.411-.205,6.114c.008.046.021.065.038.061.237-.042,1.282-4.725,1.282-4.725.007-.03.008-.056.013-.085a1.754,1.754,0,0,1,1.8.09,1.231,1.231,0,0,1,.2.218,1.961,1.961,0,0,1,.233,1.578,4.436,4.436,0,0,1-.934,1.864,3.523,3.523,0,0,1-2.77,1.482h0a6.237,6.237,0,0,1-.365.668c-.033.053-.069.1-.1.155-.106.159-.218.314-.338.463-.048.06-.1.118-.146.176-.12.139-.246.271-.378.4-.052.05-.1.1-.154.151a6.425,6.425,0,0,1-.581.474c-.147.105-.3.206-.453.3s-.345.19-.523.275c-.121.057-.249.1-.373.148a4.78,4.78,0,0,0,.417,1.544l.287.1c1.018.214,3.687.8,5.986,1.491a8,8,0,0,0,2.687-2.933S278.751,316.747,279.673,310.73Z" transform="translate(-257.273 -296.949)" fill="#2c193f"/>
            </g>
            <g id="Grupo_134948" data-name="Grupo 134948" transform="translate(10.462 22.241)">
              <path id="Trazado_190713" data-name="Trazado 190713" d="M275.056,376.44a4.074,4.074,0,0,0,2.087-3.7h0c-1.179-6.673-2.832-15.041-3.8-15.91-1.58-1.411-9.976-3.091-9.976-3.091a8.862,8.862,0,0,1-3,4.955,8.857,8.857,0,0,1-3-4.955s-8.393,1.68-9.973,3.091-4.451,21.817-4.666,23.377c0,0,3.942,7.08,17.625,7.1h.036c8.1-.009,12.968-2.212,15.588-4.008l-1.654.352Z" transform="translate(-242.718 -353.737)" fill="#f7cd3c"/>
              <g id="Grupo_134946" data-name="Grupo 134946" transform="translate(5.687)">
                <path id="Trazado_190714" data-name="Trazado 190714" d="M258.7,396.556l.6-19.088c-.78,1.783-2.062,18.707-2.062,18.707Z" transform="translate(-257.239 -368.174)" fill="#cba42c"/>
                <path id="Trazado_190715" data-name="Trazado 190715" d="M298.487,364.257l-6.965-6.537-.436.231c.831-1.482-.316-4.214-.316-4.214.018,2.518-3,4.955-3,4.955a3.351,3.351,0,0,0,2.891-.24,4.342,4.342,0,0,1,1.171,2.239c.53,2.006,4.981,13.65,4.981,13.65l2.75-9.279v-2.849Z" transform="translate(-275.811 -353.737)" fill="#cba42c"/>
                <path id="Trazado_190716" data-name="Trazado 190716" d="M279.136,353.737s-2.646,6.3,3,4.955C282.14,358.692,279.118,356.255,279.136,353.737Z" transform="translate(-270.183 -353.737)" fill="#cba42c"/>
              </g>
              <g id="Grupo_134947" data-name="Grupo 134947" transform="translate(13.851 0)">
                <path id="Trazado_190717" data-name="Trazado 190717" d="M278.87,353.738c-2.861,5.527,3.006,4.955,3.006,4.955C280.238,357.474,278.87,353.738,278.87,353.738Z" transform="translate(-278.084 -353.738)" fill="#fff"/>
                <path id="Trazado_190718" data-name="Trazado 190718" d="M290.755,353.738s-1.367,3.736-3.005,4.955C287.75,358.693,293.617,359.265,290.755,353.738Z" transform="translate(-283.964 -353.738)" fill="#fff"/>
              </g>
            </g>
            <g id="Grupo_134950" data-name="Grupo 134950" transform="translate(29.577 17.117)">
              <path id="Trazado_190719" data-name="Trazado 190719" d="M293.995,344.829s-1.567-3.549-.843-3.7,2.324,2.324,3.363,4.933,1.094,4.28,2.32,6.286,6.909,10.531,6.63,12.871-5.2,4.011-6.247,1.448-4.285-14.375-4.981-15.266-1.553-1.015-1.7-2.117c0,0-1-1-.78-1.783,0,0-.149-1.17.427-1.616C292.186,345.888,292.72,344.439,293.995,344.829Z" transform="translate(-291.647 -340.941)" fill="#e9beb7"/>
              <g id="Grupo_134949" data-name="Grupo 134949">
                <path id="Trazado_190720" data-name="Trazado 190720" d="M296.92,342.829c-.759-1.7-1.266-2.445-2.087-2.085a.41.41,0,0,0-.218.242c-.269.707.616,2.689.717,2.912a.112.112,0,0,0,.1.065.11.11,0,0,0,.046-.01.111.111,0,0,0,.055-.147c-.266-.584-.912-2.216-.712-2.741a.194.194,0,0,1,.1-.118c.586-.256,1,.2,1.793,1.972a.111.111,0,1,0,.2-.091Z" transform="translate(-293.374 -340.655)" fill="#dc7660"/>
                <path id="Trazado_190721" data-name="Trazado 190721" d="M292.327,357.287a.954.954,0,0,0-.705-.172.112.112,0,0,0-.1.125.113.113,0,0,0,.125.1.75.75,0,0,1,.521.11.112.112,0,0,0,.078.032.11.11,0,0,0,.079-.033A.112.112,0,0,0,292.327,357.287Z" transform="translate(-291.524 -350.664)" fill="#dc7660"/>
                <path id="Trazado_190722" data-name="Trazado 190722" d="M293.587,361.652a.112.112,0,0,0,.081.208.529.529,0,0,1,.5.149.111.111,0,0,0,.071.025.11.11,0,0,0,.085-.04.111.111,0,0,0-.014-.157A.745.745,0,0,0,293.587,361.652Z" transform="translate(-292.736 -353.411)" fill="#dc7660"/>
                <path id="Trazado_190723" data-name="Trazado 190723" d="M292.753,353.182a.76.76,0,0,1,.656.146.11.11,0,0,0,.08.034.111.111,0,0,0,.08-.189.969.969,0,0,0-.87-.208.112.112,0,0,0,.053.217Z" transform="translate(-292.188 -348.128)" fill="#dc7660"/>
              </g>
            </g>
            <path id="Trazado_190724" data-name="Trazado 190724" d="M314.119,394.959c.111-.934-.728-2.854-1.854-4.951l-6.313.463c.784,2.583,1.514,4.948,1.92,5.936C308.923,398.97,313.84,397.3,314.119,394.959Z" transform="translate(-270.725 -353.562)" fill="#dc7660"/>
            <rect id="Rectángulo_41550" data-name="Rectángulo 41550" width="27.932" height="21.756" rx="3.284" transform="translate(16.149 36.909)" fill="#185581"/>
            <g id="Grupo_134953" data-name="Grupo 134953" transform="translate(0 48.709)">
              <g id="Grupo_134951" data-name="Grupo 134951" transform="translate(26.193 10.274)">
                <ellipse id="Elipse_5371" data-name="Elipse 5371" cx="11.143" cy="4.606" rx="11.143" ry="4.606" transform="translate(0 0.075)" fill="#185581"/>
                <path id="Trazado_190725" data-name="Trazado 190725" d="M283.551,452.41c.389,2.038,3.112,3.23,6.083,2.663s5.063-2.679,4.674-4.717-3.112-3.231-6.083-2.664S283.161,450.372,283.551,452.41Z" transform="translate(-283.261 -447.552)" fill="#db9292"/>
              </g>
              <g id="Grupo_134952" data-name="Grupo 134952">
                <path id="Trazado_190726" data-name="Trazado 190726" d="M251.22,430.18s-11.729-5.342-17.6-6.947-12.973-2.664-14.961-1.26-3.625,7.525-1.974,9.544,30.51,7.744,32.624,7.123S256.044,435.694,251.22,430.18Z" transform="translate(-216.005 -421.32)" fill="#b13e8d"/>
                <path id="Trazado_190727" data-name="Trazado 190727" d="M265.718,448.54c2.114-.622,6.737-2.947,1.913-8.461,0,0-2.46-1.12-5.689-2.488,0,0-6.234,1.555-7.7,3.063,0,0-8.583-.194-11.264,3.926h0C252.1,446.743,264.368,448.937,265.718,448.54Z" transform="translate(-232.416 -431.218)" fill="#3a8e76"/>
              </g>
            </g>
            <g id="Grupo_134955" data-name="Grupo 134955" transform="translate(9.88 48.709)">
              <g id="Grupo_134954" data-name="Grupo 134954" transform="translate(0 9.388)">
                <ellipse id="Elipse_5372" data-name="Elipse 5372" cx="11.143" cy="4.606" rx="11.143" ry="4.606" transform="translate(0 0.96)" fill="#185581"/>
                <ellipse id="Elipse_5373" data-name="Elipse 5373" cx="3.757" cy="5.476" rx="3.757" ry="5.476" transform="matrix(0.188, -0.982, 0.982, 0.188, 10.536, 7.381)" fill="#db9292"/>
              </g>
              <path id="Trazado_190728" data-name="Trazado 190728" d="M273.862,430.18s11.729-5.342,17.6-6.947,12.973-2.664,14.961-1.26,3.625,7.525,1.974,9.544-30.51,7.744-32.624,7.123S269.038,435.694,273.862,430.18Z" transform="translate(-259.793 -421.32)" fill="#b13e8d"/>
            </g>
          </g>
          <path id="Trazado_190729" data-name="Trazado 190729" d="M239.446,252.117h-14.2a5.267,5.267,0,0,0-5.267,5.267V260.3a5.267,5.267,0,0,0,5.267,5.267h14.2l3.079,2.254.594-3.75h0a5.247,5.247,0,0,0,1.594-3.771v-2.913A5.267,5.267,0,0,0,239.446,252.117Z" transform="translate(-218.419 -252.117)" fill="#f1da92"/>
          <g id="Grupo_134957" data-name="Grupo 134957" transform="translate(6.55 5.221)">
            <path id="Trazado_190730" data-name="Trazado 190730" d="M234.194,265.449a1.465,1.465,0,1,0,1.465,1.465A1.464,1.464,0,0,0,234.194,265.449Z" transform="translate(-232.73 -265.449)" fill="#fff"/>
            <path id="Trazado_190731" data-name="Trazado 190731" d="M248.856,265.449a1.465,1.465,0,1,0,1.464,1.465A1.464,1.464,0,0,0,248.856,265.449Z" transform="translate(-241.65 -265.449)" fill="#fff"/>
            <path id="Trazado_190732" data-name="Trazado 190732" d="M263.886,265.449a1.465,1.465,0,1,0,1.464,1.465A1.465,1.465,0,0,0,263.886,265.449Z" transform="translate(-250.793 -265.449)" fill="#fff"/>
          </g>
        </g>
        <g id="Grupo_134975" data-name="Grupo 134975" transform="translate(221.006 64.109)">
          <path id="Trazado_190733" data-name="Trazado 190733" d="M614.32,155.984h14.205a5.267,5.267,0,0,1,5.267,5.267v2.913a5.267,5.267,0,0,1-5.267,5.267H614.32l-3.079,2.254-.594-3.75h0a5.248,5.248,0,0,1-1.594-3.771v-2.913A5.267,5.267,0,0,1,614.32,155.984Z" transform="translate(-565.289 -144.85)" fill="#f1da92"/>
          <g id="Grupo_134973" data-name="Grupo 134973">
            <g id="Grupo_134961" data-name="Grupo 134961" transform="translate(12.006)">
              <g id="Grupo_134959" data-name="Grupo 134959" transform="translate(2.841 11.225)">
                <path id="Trazado_190734" data-name="Trazado 190734" d="M575.663,157.439l.014-.016a2.4,2.4,0,0,1,2.433-1.139c.034.011.07.016.1.03a2.024,2.024,0,0,1,1.01,1.95,4.9,4.9,0,0,1-.406,1.984,3.568,3.568,0,0,1-2.64,2.405,1.464,1.464,0,0,1-.3-.014,1.324,1.324,0,0,1-.3-.082c-1.062-.449-1.333-2.21-.6-3.934A5.234,5.234,0,0,1,575.663,157.439Z" transform="translate(-559.155 -156.217)" fill="#db9292"/>
                <path id="Trazado_190735" data-name="Trazado 190735" d="M535.481,164.4a1.312,1.312,0,0,1,.2-.247,2.264,2.264,0,0,1,2.639.117c.047.027.095.05.142.08a5.216,5.216,0,0,1,1.051.881c1.268,1.377,1.609,3.126.761,3.907a1.315,1.315,0,0,1-.255.179,1.514,1.514,0,0,1-.507.167h0a3.794,3.794,0,0,1-3.07-1.424,4.785,4.785,0,0,1-1.119-1.948A2.112,2.112,0,0,1,535.481,164.4Z" transform="translate(-535.221 -160.819)" fill="#db9292"/>
              </g>
              <g id="Grupo_134960" data-name="Grupo 134960" transform="translate(9.312 22.295)">
                <path id="Trazado_190736" data-name="Trazado 190736" d="M553,184.482h6.427s.164,2.74,1.255,3.26c0,0-1.374,4.792-4.469,4.792s-4.469-4.792-4.469-4.792C552.832,187.222,553,184.482,553,184.482Z" transform="translate(-551.741 -184.482)" fill="#db9292"/>
                <path id="Trazado_190737" data-name="Trazado 190737" d="M554.517,185.686a9.6,9.6,0,0,0,.168-1.2h6.427A6.671,6.671,0,0,1,554.517,185.686Z" transform="translate(-553.43 -184.482)" fill="#c67d7d"/>
              </g>
              <path id="Trazado_190738" data-name="Trazado 190738" d="M550.084,162.174a6.74,6.74,0,0,1-3.579-.423c-.2-.08-.391-.166-.579-.264s-.341-.19-.506-.294a6.77,6.77,0,0,1-3.094-4.7l-1.3-8.451,13.445-2.073,1.3,8.451a6.765,6.765,0,0,1-.739,4.257,6.946,6.946,0,0,1-1.493,1.881A6.738,6.738,0,0,1,550.084,162.174Z" transform="translate(-535.909 -138.754)" fill="#e9beb7"/>
              <path id="Trazado_190739" data-name="Trazado 190739" d="M528.177,154.745c.557-2.786,3.064-6.017,2.061-11.836s-.471-13.4,7.775-15.127,11.614,6.849,12.45,10.248,2.675,7.633,3.287,11.162a8.443,8.443,0,0,1-.46,4.842c-1.77-1.314-8.056-2.529-8.056-2.529h0a9.389,9.389,0,0,1-.275-1.654h0a6.728,6.728,0,0,0,.639-.5,6.925,6.925,0,0,0,.815-.859,6.766,6.766,0,0,0,1.421-3.278,3.568,3.568,0,0,0,2.64-2.405,4.9,4.9,0,0,0,.406-1.984,2.024,2.024,0,0,0-1.01-1.95c-.034-.014-.07-.018-.1-.03a1.991,1.991,0,0,0-1.854.537s.277,5.446-.005,5.04a46.19,46.19,0,0,1-1.117-4.956c.111,1.048-2.348-.889-2.348-.889.494,1.163-5.081-1.386-5.081-1.386-1.021,2.9-3.027,1.17-3.027,1.17-.705,3.009-2.08,2.693-2.08,2.693l-.226.78c.224,1.189.915,4.941.632,4.636a42.346,42.346,0,0,1-1.767-4.656,1.74,1.74,0,0,0-1.618.3,1.312,1.312,0,0,0-.2.247,2.112,2.112,0,0,0-.155,1.712,4.786,4.786,0,0,0,1.119,1.948,3.794,3.794,0,0,0,3.07,1.424h0a6.822,6.822,0,0,0,2.375,2.549c.165.1.333.2.506.294.155.08.316.149.478.217a8.721,8.721,0,0,1-.2,1c-.028.005-7.161,1.386-8.347,2.794a29.777,29.777,0,0,0-1.836,3.271A6.764,6.764,0,0,1,528.177,154.745Z" transform="translate(-527.966 -127.556)" fill="#2c193f"/>
            </g>
            <g id="Grupo_134964" data-name="Grupo 134964" transform="translate(0 119.193)">
              <g id="Grupo_134962" data-name="Grupo 134962">
                <path id="Trazado_190740" data-name="Trazado 190740" d="M525.978,435.481l-.715,5.341a3.1,3.1,0,0,1-3.515,3.05c-3.454-.223-2.935-2.544-2.935-2.544l.928-9.435Z" transform="translate(-510.374 -431.894)" fill="#e9beb7"/>
                <path id="Trazado_190741" data-name="Trazado 190741" d="M513.7,459.487h-16.38a2.888,2.888,0,0,1,2.377-3.083c2.637-.594,4.252-5.35,6.194-4.272s2.8,2.044,4.393,1.449,2.006-.705,2.823.223S515.443,459.487,513.7,459.487Z" transform="translate(-497.31 -444.109)" fill="#185581"/>
                <path id="Trazado_190742" data-name="Trazado 190742" d="M520.3,441.328l6.277,2.3.171-1.28Z" transform="translate(-511.295 -437.633)" fill="#dc7660"/>
              </g>
              <g id="Grupo_134963" data-name="Grupo 134963" transform="translate(27.085 0.446)">
                <path id="Trazado_190743" data-name="Trazado 190743" d="M580.264,442.628l-.654-9.6-6.742,1.114.391,7.945Z" transform="translate(-570.361 -433.032)" fill="#e9beb7"/>
                <path id="Trazado_190744" data-name="Trazado 190744" d="M566.466,459.153a9.781,9.781,0,0,1,1.332-4.212c.273-1.53.817-3.854,1.555-3.476l.161,1.713a5.509,5.509,0,0,1,3.025-.822,5.364,5.364,0,0,1,3.5,1.168l0-.005.183-1.942c1.086-.557,1.752,4.743,1.752,4.743l0,0a10.177,10.177,0,0,1,.645,2.837Z" transform="translate(-566.466 -444.221)" fill="#185581"/>
                <path id="Trazado_190745" data-name="Trazado 190745" d="M580.2,443.052l-6.765,2.14L573.4,443.7Z" transform="translate(-570.686 -439.128)" fill="#dc7660"/>
              </g>
            </g>
            <g id="Grupo_134965" data-name="Grupo 134965" transform="translate(6.423 59.876)">
              <path id="Trazado_190746" data-name="Trazado 190746" d="M545.505,283.857l2.86,59.839-13.991,1.343-3.4-45.582-5,45.582-12.258-2.012,6.932-59.171S534.4,276.168,545.505,283.857Z" transform="translate(-513.71 -280.44)" fill="#b13e8d"/>
              <path id="Trazado_190747" data-name="Trazado 190747" d="M531.087,283.857s13.758-7.689,24.864,0l-25.071,1.77Z" transform="translate(-524.155 -280.44)" fill="#b13e8d"/>
            </g>
            <g id="Grupo_134967" data-name="Grupo 134967" transform="translate(2.434 23.949)">
              <path id="Trazado_190748" data-name="Trazado 190748" d="M515.041,191.5c1.189-1.411,8.349-2.795,8.349-2.795.061,1.9,3.488,3.166,3.489,3.166s3.428-1.264,3.489-3.166c0,0,7.16,1.383,8.349,2.795s11.514,22.658,11.514,25.332-2.526,6.761-4.754,6.835-5.178-2.823-5.178-2.823.571,6.909-.988,7.206-12.432-.567-12.432-.567h0s-10.872.864-12.432.567-.988-7.206-.988-7.206-2.949,2.9-5.177,2.823-4.755-4.16-4.755-6.835S513.852,192.912,515.041,191.5Z" transform="translate(-503.526 -188.706)" fill="#6836bf"/>
              <g id="Grupo_134966" data-name="Grupo 134966" transform="translate(1.812 11.288)">
                <path id="Trazado_190749" data-name="Trazado 190749" d="M534.448,245.953l-.323-.856,5.513-1.911,7.559.382,2.871,2.329-.679,2.222,6.337,5.869-7.266-5.4.223-1.619-2.576-1.226h-7.575l-3.072.483.409,1.671-6.983,6.092,6.2-6.129Z" transform="translate(-520.765 -233.137)" fill="#6836bf"/>
                <path id="Trazado_190750" data-name="Trazado 190750" d="M585.763,226.431l-.827-.16.631-1.544,2.659.991-.913-8.188,2.08,8.7,8.655,5.014-11.7-5.3Z" transform="translate(-554.864 -217.529)" fill="#6836bf"/>
                <path id="Trazado_190751" data-name="Trazado 190751" d="M519.853,225.944l-11.7,5.3,8.655-5.014,2.08-8.7-.913,8.188,2.659-.991.631,1.544-.827.16Z" transform="translate(-508.152 -217.529)" fill="#6836bf"/>
              </g>
            </g>
            <g id="Grupo_134972" data-name="Grupo 134972" transform="translate(16.455 35.238)">
              <path id="Rectángulo_41551" data-name="Rectángulo 41551" d="M2.8,0H4.779a2.8,2.8,0,0,1,2.8,2.8V9.162a2.8,2.8,0,0,1-2.8,2.8H2.8A2.8,2.8,0,0,1,0,9.163V2.8A2.8,2.8,0,0,1,2.8,0Z" transform="translate(5.557)" fill="#fff"/>
              <g id="Grupo_134969" data-name="Grupo 134969" transform="translate(0 3.249)">
                <path id="Trazado_190752" data-name="Trazado 190752" d="M541.076,229.741c1.147-1.226,2.644-3.169,2.962-3.344a9.49,9.49,0,0,0,.844-.573v2.452a18.274,18.274,0,0,0,2.6-.4,6.871,6.871,0,0,0,2.739-1.051c.414-.334,1.274-.462,1.083.08a12.234,12.234,0,0,1-.572,1.272,1.427,1.427,0,0,1-.31.967,2.1,2.1,0,0,1-.428.4.814.814,0,0,1-.08,1.176s.291.567-.409,1.347a8.272,8.272,0,0,1-3.376,1.9c-1.322.43-1.624.111-3.2.605a18.391,18.391,0,0,0-2.125.824l-1.474-3.914A23.437,23.437,0,0,0,541.076,229.741Z" transform="translate(-539.325 -225.824)" fill="#e9beb7"/>
                <g id="Grupo_134968" data-name="Grupo 134968" transform="translate(3.662 2.176)">
                  <path id="Trazado_190753" data-name="Trazado 190753" d="M561.218,231.4a.049.049,0,0,0-.068,0,7.176,7.176,0,0,1-4.7,1.634.051.051,0,0,0-.05.046.048.048,0,0,0,.046.05c.075,0,.15,0,.224,0a7.3,7.3,0,0,0,4.544-1.662A.048.048,0,0,0,561.218,231.4Z" transform="translate(-553.376 -231.38)" fill="#dc7660"/>
                  <path id="Trazado_190754" data-name="Trazado 190754" d="M561.174,235.18a6.658,6.658,0,0,1-3.35,1.535.048.048,0,0,0,.008.095h.008a6.762,6.762,0,0,0,3.4-1.561.048.048,0,0,0-.067-.068Z" transform="translate(-554.217 -233.683)" fill="#dc7660"/>
                  <path id="Trazado_190755" data-name="Trazado 190755" d="M561.549,238.215a7.045,7.045,0,0,1-3,1.843.048.048,0,0,0,.011.094h.011a7.16,7.16,0,0,0,3.045-1.871.048.048,0,1,0-.07-.065Z" transform="translate(-554.662 -235.529)" fill="#dc7660"/>
                  <path id="Trazado_190756" data-name="Trazado 190756" d="M550.563,231.964a4.306,4.306,0,0,0-1.873.762.048.048,0,0,0,.068.067,4.313,4.313,0,0,1,1.821-.735.048.048,0,1,0-.016-.094Z" transform="translate(-548.676 -231.734)" fill="#dc7660"/>
                </g>
                <path id="Trazado_190757" data-name="Trazado 190757" d="M557.093,232.757a.949.949,0,0,1,.191-1.046,1.845,1.845,0,0,1-.091-1.118,3.723,3.723,0,0,1-.852-1.332c.412-.06.92-.147,1.489-.273a6.871,6.871,0,0,0,2.739-1.051c.414-.334,1.274-.462,1.083.079a12.233,12.233,0,0,1-.572,1.272,1.426,1.426,0,0,1-.31.967,2.094,2.094,0,0,1-.428.4l-.012-.012s-.007.018.012.012a.815.815,0,0,1-.08,1.176s.291.567-.409,1.347a5.161,5.161,0,0,1-1.211.94S557.315,233.467,557.093,232.757Z" transform="translate(-549.677 -226.933)" fill="#b88180" opacity="0.65"/>
              </g>
              <g id="Grupo_134971" data-name="Grupo 134971" transform="translate(6.688 3.249)">
                <path id="Trazado_190758" data-name="Trazado 190758" d="M557.511,226.827a6.871,6.871,0,0,0,2.739,1.051,18.282,18.282,0,0,0,2.6.4v-2.452a9.481,9.481,0,0,0,.844.573c.318.175,1.815,2.118,2.962,3.344a23.471,23.471,0,0,0,1.752,1.736l.032.028-1.628,3.83a18.2,18.2,0,0,0-2-.769c-1.576-.494-1.879-.175-3.2-.605a8.274,8.274,0,0,1-3.376-1.9c-.7-.78-.409-1.347-.409-1.347a.814.814,0,0,1-.08-1.176,2.089,2.089,0,0,1-.428-.4,1.428,1.428,0,0,1-.31-.967,12.286,12.286,0,0,1-.572-1.272C556.237,226.365,557.1,226.493,557.511,226.827Z" transform="translate(-556.401 -225.824)" fill="#e9beb7"/>
                <g id="Grupo_134970" data-name="Grupo 134970" transform="translate(0.485 2.176)">
                  <path id="Trazado_190759" data-name="Trazado 190759" d="M557.652,231.4a.048.048,0,0,1,.067,0,7.178,7.178,0,0,0,4.7,1.634.05.05,0,0,1,.049.046.048.048,0,0,1-.046.05c-.075,0-.15,0-.224,0a7.306,7.306,0,0,1-4.544-1.662A.048.048,0,0,1,557.652,231.4Z" transform="translate(-557.639 -231.38)" fill="#dc7660"/>
                  <path id="Trazado_190760" data-name="Trazado 190760" d="M559.805,235.18a6.657,6.657,0,0,0,3.35,1.535.048.048,0,0,1-.008.095h-.008a6.764,6.764,0,0,1-3.4-1.561.048.048,0,1,1,.067-.068Z" transform="translate(-558.907 -233.683)" fill="#dc7660"/>
                  <path id="Trazado_190761" data-name="Trazado 190761" d="M559.981,238.215a7.05,7.05,0,0,0,3,1.843.048.048,0,0,1-.011.094h-.011a7.156,7.156,0,0,1-3.045-1.871.048.048,0,1,1,.07-.065Z" transform="translate(-559.014 -235.529)" fill="#dc7660"/>
                  <path id="Trazado_190762" data-name="Trazado 190762" d="M572.791,231.964a4.307,4.307,0,0,1,1.873.762.048.048,0,0,1-.034.081.047.047,0,0,1-.034-.014,4.315,4.315,0,0,0-1.821-.735.048.048,0,0,1,.016-.094Z" transform="translate(-566.823 -231.734)" fill="#dc7660"/>
                </g>
              </g>
            </g>
          </g>
          <g id="Grupo_134974" data-name="Grupo 134974" transform="translate(48.855 16.338)">
            <path id="Trazado_190763" data-name="Trazado 190763" d="M623.517,169.273a1.465,1.465,0,1,0,1.464,1.464A1.464,1.464,0,0,0,623.517,169.273Z" transform="translate(-622.052 -169.273)" fill="#fff"/>
            <path id="Trazado_190764" data-name="Trazado 190764" d="M638.178,169.273a1.465,1.465,0,1,0,1.464,1.464A1.464,1.464,0,0,0,638.178,169.273Z" transform="translate(-630.972 -169.273)" fill="#fff"/>
            <circle id="Elipse_5374" data-name="Elipse 5374" cx="1.464" cy="1.464" r="1.464" transform="translate(11.629 0)" fill="#fff"/>
          </g>
        </g>
        <g id="Grupo_134979" data-name="Grupo 134979" transform="translate(43.127 23.347)">
          <text id="_3" data-name="?" transform="matrix(0.949, -0.314, 0.314, 0.949, 80.681, 73.472)" fill="#ccd4f2" font-size="71" font-family="SegoeUI, Segoe UI"><tspan x="0" y="0">?</tspan></text>
          <text id="_4" data-name="?" transform="translate(195.864 33.535) rotate(16.839)" fill="#fff" font-size="29" font-family="SegoeUI, Segoe UI"><tspan x="0" y="0">?</tspan></text>
          <text id="_5" data-name="?" transform="translate(100.714 99.701) rotate(12.222)" fill="#fff" font-size="20" font-family="SegoeUI, Segoe UI"><tspan x="0" y="0">?</tspan></text>
          <text id="_6" data-name="?" transform="translate(6.602 98.084) rotate(-20.332)" fill="#f1da92" font-size="20" font-family="SegoeUI, Segoe UI"><tspan x="0" y="0">?</tspan></text>
          <text id="_7" data-name="?" transform="translate(228.577 91.955) rotate(22.495)" fill="#fff" font-size="20" font-family="SegoeUI, Segoe UI"><tspan x="0" y="0">?</tspan></text>
          <text id="_8" data-name="?" transform="matrix(0.949, -0.314, 0.314, 0.949, 79.506, 73.081)" fill="#fff" font-size="71" font-family="SegoeUI, Segoe UI"><tspan x="0" y="0">?</tspan></text>
          <g id="Grupo_134976" data-name="Grupo 134976" transform="translate(108.908 48.596)">
            <circle id="Elipse_5375" data-name="Elipse 5375" cx="1.464" cy="1.464" r="1.464" transform="translate(0 0)" fill="#fff"/>
            <circle id="Elipse_5376" data-name="Elipse 5376" cx="1.464" cy="1.464" r="1.464" transform="translate(5.742 0)" fill="#fff"/>
            <circle id="Elipse_5377" data-name="Elipse 5377" cx="1.464" cy="1.464" r="1.464" transform="translate(11.628 0)" fill="#fff"/>
          </g>
          <g id="Grupo_134977" data-name="Grupo 134977" transform="translate(170.6 62.847)">
            <path id="Trazado_190765" data-name="Trazado 190765" d="M480.189,183.947a1.465,1.465,0,1,0,1.464,1.464A1.464,1.464,0,0,0,480.189,183.947Z" transform="translate(-478.725 -183.947)" fill="#fff"/>
            <path id="Trazado_190766" data-name="Trazado 190766" d="M494.851,183.947a1.465,1.465,0,1,0,1.464,1.464A1.464,1.464,0,0,0,494.851,183.947Z" transform="translate(-487.644 -183.947)" fill="#fff"/>
            <path id="Trazado_190767" data-name="Trazado 190767" d="M509.88,183.947a1.465,1.465,0,1,0,1.464,1.464A1.464,1.464,0,0,0,509.88,183.947Z" transform="translate(-496.788 -183.947)" fill="#fff"/>
          </g>
          <g id="Grupo_134978" data-name="Grupo 134978" transform="translate(16.501 58.561)">
            <path id="Trazado_190768" data-name="Trazado 190768" d="M86.724,173a1.464,1.464,0,1,0,1.464,1.464A1.464,1.464,0,0,0,86.724,173Z" transform="translate(-85.26 -173.002)" fill="#fff"/>
            <path id="Trazado_190769" data-name="Trazado 190769" d="M101.386,173a1.464,1.464,0,1,0,1.464,1.464A1.464,1.464,0,0,0,101.386,173Z" transform="translate(-94.179 -173.002)" fill="#fff"/>
            <path id="Trazado_190770" data-name="Trazado 190770" d="M116.415,173a1.464,1.464,0,1,0,1.464,1.464A1.464,1.464,0,0,0,116.415,173Z" transform="translate(-103.323 -173.002)" fill="#fff"/>
          </g>
        </g>
      </g>
      <g id="Grupo_134981" data-name="Grupo 134981" transform="translate(748 3066)">
        <text id="Software" transform="translate(52 14)" fill="#6836bf" font-size="18" font-family="Roboto-BoldItalic, Roboto" font-weight="700" font-style="italic"><tspan x="-35.732" y="0">Software</tspan></text>
      </g>
      <text id="Capacitación_" data-name="Capacitación " transform="translate(472.015 3224.389)" fill="#6836bf" font-size="18" font-family="Roboto-Bold, Roboto" font-weight="700"><tspan x="-55.002" y="0">Capacitación </tspan></text>
      <text id="Chatbot" transform="translate(488 3751.341)" fill="#6836bf" font-size="18" font-family="Roboto-BoldItalic, Roboto" font-weight="700" font-style="italic"><tspan x="-31.333" y="0">Chatbot</tspan></text>
      <text id="Chat_en_vivo" data-name="Chat en vivo" transform="translate(800 3886.669)" fill="#6836bf" font-size="18" font-family="Roboto-BlackItalic, Roboto" font-weight="800" font-style="italic"><tspan x="-49.333" y="0">Chat </tspan><tspan y="0" font-family="Roboto-Bold, Roboto" font-weight="700" font-style="normal">en vivo</tspan></text>
      <text id="Respuesta_automática" data-name="Respuesta
automática" transform="translate(1129 3748.532)" fill="#6836bf" font-size="18" font-family="Roboto-Bold, Roboto" font-weight="700"><tspan x="-42.697" y="0">Respuesta</tspan><tspan x="-45.422" y="24">automática</tspan></text>
      <text id="Preguntas_más_frecuentes" data-name="Preguntas más
frecuentes" transform="translate(1142 3207.02)" fill="#6836bf" font-size="18" font-family="Roboto-Bold, Roboto" font-weight="700"><tspan x="-61.062" y="0">Preguntas más</tspan><tspan x="-43.458" y="24">frecuentes</tspan></text>
      <g id="diseno-grafico" transform="translate(736.892 3097.566)">
        <path id="Trazado_190771" data-name="Trazado 190771" d="M103.661,68.879h-2.7v2.7h2.7a1.353,1.353,0,0,1,1.352,1.352v47.312H21.2V72.934a1.353,1.353,0,0,1,1.352-1.352h2.7v-2.7h-2.7A4.06,4.06,0,0,0,18.5,72.934v55.422a4.06,4.06,0,0,0,4.055,4.055h31.09c0,4.792.122,4.763-.562,6.187a7.31,7.31,0,0,0-.661,1.923H49a4.049,4.049,0,0,0-3.934,3.072l-.84,3.36a1.352,1.352,0,0,0,1.311,1.679H80.681a1.352,1.352,0,0,0,1.311-1.679l-.84-3.361a4.049,4.049,0,0,0-3.934-3.07H73.794c-.386-2.072-1.223-2.159-1.223-4.274v-3.836h31.09a4.06,4.06,0,0,0,4.055-4.055V72.934a4.06,4.06,0,0,0-4.055-4.055Zm-25.13,75.37.42,1.68H47.266l.42-1.679A1.351,1.351,0,0,1,49,143.225H77.218a1.352,1.352,0,0,1,1.312,1.023Zm-7.509-3.727H55.194a9.084,9.084,0,0,0,1.155-4.274v-3.836H69.867v3.836A9.1,9.1,0,0,0,71.022,140.522Zm33.991-12.166a1.353,1.353,0,0,1-1.352,1.352H22.555a1.353,1.353,0,0,1-1.352-1.352v-5.407h83.809Z" transform="translate(0 -40.916)" fill="#6836bf"/>
        <path id="Trazado_190772" data-name="Trazado 190772" d="M47.288,367.553h2.7v2.7h-2.7Z" transform="translate(-23.381 -283.493)" fill="#6836bf"/>
        <path id="Trazado_190773" data-name="Trazado 190773" d="M76.076,367.553h2.7v2.7h-2.7Z" transform="translate(-46.762 -283.493)" fill="#6836bf"/>
        <path id="Trazado_190774" data-name="Trazado 190774" d="M104.864,367.553h2.7v2.7h-2.7Z" transform="translate(-70.143 -283.493)" fill="#6836bf"/>
        <path id="Trazado_190775" data-name="Trazado 190775" d="M97.667,47.288h2.7v2.7h-2.7Z" transform="translate(-64.298 -23.381)" fill="#6836bf"/>
        <path id="Trazado_190776" data-name="Trazado 190776" d="M126.455,47.288h2.7v2.7h-2.7Z" transform="translate(-87.678 -23.381)" fill="#6836bf"/>
        <path id="Trazado_190777" data-name="Trazado 190777" d="M155.242,47.288h2.7v2.7h-2.7Z" transform="translate(-111.059 -23.381)" fill="#6836bf"/>
        <path id="Trazado_190778" data-name="Trazado 190778" d="M256,47.288h29.739v2.7H256Z" transform="translate(-192.892 -23.381)" fill="#6836bf"/>
        <path id="Trazado_190779" data-name="Trazado 190779" d="M135.115,76.626a4.06,4.06,0,0,0,4.055-4.055V22.555a4.06,4.06,0,0,0-4.055-4.055H72.934a4.06,4.06,0,0,0-4.055,4.055V72.571a4.06,4.06,0,0,0,4.055,4.055Zm1.352-4.055a1.353,1.353,0,0,1-1.352,1.352H90.507v-41.9h45.96ZM71.582,22.555A1.353,1.353,0,0,1,72.934,21.2h62.181a1.353,1.353,0,0,1,1.352,1.352v6.759H71.582Zm0,50.015V32.018H87.8v41.9H72.934A1.353,1.353,0,0,1,71.582,72.571Z" transform="translate(-40.916)" fill="#6836bf"/>
        <path id="Trazado_190780" data-name="Trazado 190780" d="M99.019,141.762h8.111a1.351,1.351,0,0,0,1.352-1.352V135a1.351,1.351,0,0,0-1.352-1.352H99.019A1.351,1.351,0,0,0,97.667,135v5.407a1.351,1.351,0,0,0,1.352,1.352Zm1.352-5.407h5.407v2.7h-5.407Z" transform="translate(-64.298 -93.523)" fill="#6836bf"/>
        <path id="Trazado_190781" data-name="Trazado 190781" d="M99.019,199.338h8.111a1.351,1.351,0,0,0,1.352-1.352v-5.407a1.351,1.351,0,0,0-1.352-1.352H99.019a1.351,1.351,0,0,0-1.352,1.352v5.407a1.351,1.351,0,0,0,1.352,1.352Zm1.352-5.407h5.407v2.7h-5.407Z" transform="translate(-64.298 -140.285)" fill="#6836bf"/>
        <path id="Trazado_190782" data-name="Trazado 190782" d="M99.019,256.914h8.111a1.351,1.351,0,0,0,1.352-1.352v-5.407a1.351,1.351,0,0,0-1.352-1.352H99.019a1.351,1.351,0,0,0-1.352,1.352v5.407a1.351,1.351,0,0,0,1.352,1.352Zm1.352-5.407h5.407v2.7h-5.407Z" transform="translate(-64.298 -187.047)" fill="#6836bf"/>
        <path id="Trazado_190783" data-name="Trazado 190783" d="M97.667,104.864h10.814v2.7H97.667Z" transform="translate(-64.298 -70.143)" fill="#6836bf"/>
        <path id="Trazado_190784" data-name="Trazado 190784" d="M327.97,214.17v13.518a1.351,1.351,0,0,0,1.352,1.352h13.518a1.351,1.351,0,0,0,1.352-1.352V214.17a1.351,1.351,0,0,0-1.352-1.352H329.322a1.351,1.351,0,0,0-1.352,1.352Zm2.7,1.352h10.814v10.814H330.673Z" transform="translate(-251.344 -157.82)" fill="#6836bf"/>
        <path id="Trazado_190785" data-name="Trazado 190785" d="M257.354,122.667h16.221a1.352,1.352,0,0,0,1.187-2L266.651,105.8a1.407,1.407,0,0,0-2.373,0l-8.111,14.869a1.352,1.352,0,0,0,1.187,2Zm8.111-13.4,5.833,10.7H259.631Z" transform="translate(-192.894 -70.373)" fill="#6836bf"/>
        <path id="Trazado_190786" data-name="Trazado 190786" d="M209.238,229.04c5.963,0,10.814-3.638,10.814-8.111s-4.851-8.111-10.814-8.111-10.814,3.638-10.814,8.111S203.275,229.04,209.238,229.04Zm0-13.518c4.4,0,8.111,2.476,8.111,5.407s-3.715,5.407-8.111,5.407-8.111-2.476-8.111-5.407,3.715-5.407,8.111-5.407Z" transform="translate(-146.13 -157.821)" fill="#6836bf"/>
      </g>
      <g id="capacitacion" transform="translate(486.289 3273.24)">
        <path id="Trazado_190787" data-name="Trazado 190787" d="M190.613,400.845a1.382,1.382,0,0,1-.183-.012l-.774-.1H167.6a1.389,1.389,0,0,1-1.389-1.41l.115-7.689c0-6.556,5.959-9.6,9.567-10.391a14.2,14.2,0,0,1,6.566,0c3.609.8,9.545,3.845,9.545,10.407v7.8a1.391,1.391,0,0,1-1.39,1.389Zm-21.6-2.893h20.217v-6.3c0-6.088-7.162-7.653-7.467-7.717a1.406,1.406,0,0,1-.372-.135,14.073,14.073,0,0,0-4.537.044,2.725,2.725,0,0,1-.279.089c-.306.064-7.468,1.629-7.468,7.717Zm0,0" transform="translate(-136.945 -314.745)" fill="#6836bf"/>
        <path id="Trazado_190788" data-name="Trazado 190788" d="M206.5,300.073a7.169,7.169,0,1,1,7.142-7.169A7.163,7.163,0,0,1,206.5,300.073Zm0-11.561a4.392,4.392,0,1,0,4.365,4.393A4.385,4.385,0,0,0,206.5,288.512Zm0,0" transform="translate(-164.337 -236.134)" fill="#6836bf"/>
        <path id="Trazado_190789" data-name="Trazado 190789" d="M356.333,400.842a1.424,1.424,0,0,1-.184-.012l-.771-.1H333.321a1.389,1.389,0,0,1-1.389-1.41l.115-7.689c0-6.556,5.959-9.6,9.566-10.391a14.139,14.139,0,0,1,6.565.006c3.608.794,9.543,3.842,9.543,10.405v7.8a1.388,1.388,0,0,1-1.389,1.389Zm-21.6-2.893h20.216v-6.3c0-6.088-7.161-7.653-7.467-7.717a1.379,1.379,0,0,1-.374-.136,14.211,14.211,0,0,0-4.534.044,2.429,2.429,0,0,1-.279.09c-.306.064-7.467,1.628-7.467,7.717Zm0,0" transform="translate(-273.9 -314.741)" fill="#6836bf"/>
        <path id="Trazado_190790" data-name="Trazado 190790" d="M372.212,300.073a7.169,7.169,0,1,1,7.144-7.169A7.162,7.162,0,0,1,372.212,300.073Zm0-11.561a4.392,4.392,0,1,0,4.366,4.393A4.385,4.385,0,0,0,372.212,288.512Zm0,0" transform="translate(-301.285 -236.134)" fill="#6836bf"/>
        <path id="Trazado_190791" data-name="Trazado 190791" d="M24.9,400.842a1.434,1.434,0,0,1-.185-.012l-.77-.1H1.888A1.389,1.389,0,0,1,.5,399.316l.115-7.689c0-6.556,5.959-9.6,9.567-10.391a14.139,14.139,0,0,1,6.565.006c3.609.794,9.545,3.843,9.545,10.405v7.8a1.39,1.39,0,0,1-1.39,1.389ZM3.3,397.949H23.514v-6.3c0-6.089-7.162-7.653-7.467-7.717a1.371,1.371,0,0,1-.374-.136,14.21,14.21,0,0,0-4.534.044,2.4,2.4,0,0,1-.279.09c-.305.064-7.467,1.628-7.467,7.717Zm0,0" transform="translate(0 -314.741)" fill="#6836bf"/>
        <path id="Trazado_190792" data-name="Trazado 190792" d="M40.78,300.073a7.169,7.169,0,1,1,7.142-7.169A7.164,7.164,0,0,1,40.78,300.073Zm0-11.561a4.392,4.392,0,1,0,4.365,4.393A4.386,4.386,0,0,0,40.78,288.512Zm0,0" transform="translate(-27.385 -236.134)" fill="#6836bf"/>
        <path id="Trazado_190793" data-name="Trazado 190793" d="M293.516,98.48h2.777v14.15h-2.777Zm0,0" transform="translate(-242.152 -81.385)" fill="#6836bf"/>
        <path id="Trazado_190794" data-name="Trazado 190794" d="M325.8,127.754h2.777v9.068H325.8Zm0,0" transform="translate(-268.829 -105.577)" fill="#6836bf"/>
        <path id="Trazado_190795" data-name="Trazado 190795" d="M356.9,103.625h2.777v13.257H356.9Zm0,0" transform="translate(-294.535 -85.637)" fill="#6836bf"/>
        <path id="Trazado_190796" data-name="Trazado 190796" d="M399.8,41.879h2.777V65.854H399.8Zm0,0" transform="translate(-329.99 -34.609)" fill="#6836bf"/>
        <path id="Trazado_190797" data-name="Trazado 190797" d="M207.242,37.466H166.889a1.389,1.389,0,0,1,0-2.777h38.963V2.777H159.207V27.97a1.389,1.389,0,1,1-2.777,0V1.389A1.387,1.387,0,0,1,157.819,0h49.423a1.387,1.387,0,0,1,1.389,1.389V36.077A1.388,1.388,0,0,1,207.242,37.466Zm0,0" transform="translate(-128.863 0)" fill="#6836bf"/>
        <path id="Trazado_190798" data-name="Trazado 190798" d="M57.1,28.681a7.821,7.821,0,1,1,7.79-7.821A7.813,7.813,0,0,1,57.1,28.681Zm0-12.864A5.043,5.043,0,1,0,62.11,20.86,5.033,5.033,0,0,0,57.1,15.817Zm0,0" transform="translate(-40.337 -10.776)" fill="#6836bf"/>
        <path id="Trazado_190799" data-name="Trazado 190799" d="M36.111,139.8H21.163a1.387,1.387,0,0,1-1.389-1.389V136.3a3.976,3.976,0,0,1-5.177-3.873V125.7a18.841,18.841,0,0,1,3.31-10.7,6.675,6.675,0,0,1,2.893-2.416,9.4,9.4,0,0,1,3.67-.739h8.3c.205,0,.411.008.615.025a7.686,7.686,0,0,1,5.791,3.644l3.121,4.962,6.167,3.361a4.891,4.891,0,0,1,2.39,5.807,4.773,4.773,0,0,1-6.318,2.929,1.05,1.05,0,0,1-.144-.07l-6.861-3.753-.029,9.667a1.39,1.39,0,0,1-1.39,1.383Zm-13.559-2.777H34.727l.031-10.618.007-2.166a1.388,1.388,0,0,1,1.389-1.384h0a1.388,1.388,0,0,1,1.385,1.389v0l0,1.34,8.1,4.433a1.948,1.948,0,0,0,1.512-.064,2,2,0,0,0,1.067-1.194,2.146,2.146,0,0,0-1.085-2.49l-6.485-3.534a1.389,1.389,0,0,1-.511-.481l-3.315-5.267a4.894,4.894,0,0,0-3.664-2.354c-.13-.012-.261-.017-.391-.017h-8.3a6.669,6.669,0,0,0-2.593.522A3.9,3.9,0,0,0,20.2,116.57a16.091,16.091,0,0,0-2.824,9.128v6.729a1.258,1.258,0,0,0,.936,1.253,1.2,1.2,0,0,0,1.464-1.185v-9.238a1.389,1.389,0,1,1,2.777,0Zm0,0" transform="translate(-11.651 -92.432)" fill="#6836bf"/>
        <path id="Trazado_190800" data-name="Trazado 190800" d="M196.855,120.783l9.377-13.916,2.3,1.551-9.377,13.916Zm0,0" transform="translate(-162.27 -88.316)" fill="#6836bf"/>
      </g>
      <g id="conversacion" transform="translate(1024.312 3274.584)">
        <g id="Grupo_134983" data-name="Grupo 134983" transform="translate(0 29.706)">
          <g id="Grupo_134982" data-name="Grupo 134982">
            <path id="Trazado_190814" data-name="Trazado 190814" d="M59.071,198.755a1.707,1.707,0,0,0-1.707,1.707v11.78a8.546,8.546,0,0,1-8.536,8.536H30.395a1.707,1.707,0,0,0-1.707,1.706l0,3.394L24.61,221.8a1.708,1.708,0,0,0-1.566-1.026H11.951a8.546,8.546,0,0,1-8.536-8.536V185.951a8.546,8.546,0,0,1,8.536-8.536H29.194a1.707,1.707,0,1,0,0-3.415H11.951A11.964,11.964,0,0,0,0,185.951v26.292a11.964,11.964,0,0,0,11.951,11.951H22.17l7.012,7.012A1.707,1.707,0,0,0,32.1,230l0-5.806H48.828a11.964,11.964,0,0,0,11.951-11.951v-11.78A1.707,1.707,0,0,0,59.071,198.755Z" transform="translate(0 -174)" fill="#6836bf"/>
          </g>
        </g>
        <g id="Grupo_134985" data-name="Grupo 134985" transform="translate(33.462)">
          <g id="Grupo_134984" data-name="Grupo 134984">
            <path id="Trazado_190815" data-name="Trazado 190815" d="M225.135,0h-4.321a24.814,24.814,0,1,0,0,49.629h4.321a24.862,24.862,0,0,0,6.3-.807l6.383,6.379a1.707,1.707,0,0,0,2.914-1.208V44.116a25.052,25.052,0,0,0,6.523-8.042,24.546,24.546,0,0,0,2.7-11.26A24.843,24.843,0,0,0,225.135,0ZM238,41.919a1.708,1.708,0,0,0-.68,1.364v6.59L233.138,45.7a1.706,1.706,0,0,0-1.708-.424,21.406,21.406,0,0,1-6.294.941h-4.321a21.4,21.4,0,1,1,0-42.8h4.321A21.4,21.4,0,0,1,238,41.919Z" transform="translate(-196)" fill="#6836bf"/>
          </g>
        </g>
        <g id="Grupo_134987" data-name="Grupo 134987" transform="translate(53.687 11.962)">
          <g id="Grupo_134986" data-name="Grupo 134986">
            <path id="Trazado_190816" data-name="Trazado 190816" d="M328.9,76.783a7.228,7.228,0,0,0-14.439.509,1.707,1.707,0,1,0,3.415,0,3.814,3.814,0,0,1,4.088-3.8,3.814,3.814,0,0,1,.564,7.525,3.231,3.231,0,0,0-2.545,3.167v4.1a1.707,1.707,0,1,0,3.414,0V84.316A7.191,7.191,0,0,0,328.9,76.783Z" transform="translate(-314.462 -70.063)" fill="#6836bf"/>
          </g>
        </g>
        <g id="Grupo_134989" data-name="Grupo 134989" transform="translate(59.208 35.226)">
          <g id="Grupo_134988" data-name="Grupo 134988">
            <path id="Trazado_190817" data-name="Trazado 190817" d="M349.714,206.83a1.708,1.708,0,1,0,.5,1.207A1.72,1.72,0,0,0,349.714,206.83Z" transform="translate(-346.8 -206.33)" fill="#6836bf"/>
          </g>
        </g>
        <g id="Grupo_134991" data-name="Grupo 134991" transform="translate(9.219 52.925)">
          <g id="Grupo_134990" data-name="Grupo 134990">
            <path id="Trazado_190818" data-name="Trazado 190818" d="M91.731,310H55.707a1.707,1.707,0,0,0,0,3.415H91.731a1.707,1.707,0,0,0,0-3.415Z" transform="translate(-54 -310)" fill="#6836bf"/>
          </g>
        </g>
        <g id="Grupo_134993" data-name="Grupo 134993" transform="translate(45.243 62.486)">
          <g id="Grupo_134992" data-name="Grupo 134992">
            <path id="Trazado_190819" data-name="Trazado 190819" d="M267.914,366.5a1.706,1.706,0,1,0,.5,1.207A1.72,1.72,0,0,0,267.914,366.5Z" transform="translate(-265 -366)" fill="#6836bf"/>
          </g>
        </g>
        <g id="Grupo_134995" data-name="Grupo 134995" transform="translate(9.219 62.486)">
          <g id="Grupo_134994" data-name="Grupo 134994">
            <path id="Trazado_190820" data-name="Trazado 190820" d="M85.015,366H55.707a1.707,1.707,0,0,0,0,3.415H85.015a1.707,1.707,0,1,0,0-3.415Z" transform="translate(-54 -366)" fill="#6836bf"/>
          </g>
        </g>
        <g id="Grupo_134997" data-name="Grupo 134997" transform="translate(9.219 43.365)">
          <g id="Grupo_134996" data-name="Grupo 134996">
            <path id="Trazado_190821" data-name="Trazado 190821" d="M80.633,254H55.707a1.707,1.707,0,0,0,0,3.415H80.633a1.707,1.707,0,0,0,0-3.415Z" transform="translate(-54 -254)" fill="#6836bf"/>
          </g>
        </g>
      </g>
      <g id="_07_Chat_bot" data-name="07 Chat bot" transform="translate(483.788 3584)">
        <g id="Grupo_134998" data-name="Grupo 134998" transform="translate(3)">
          <path id="Trazado_190822" data-name="Trazado 190822" d="M15.389,36.124a1.389,1.389,0,0,0,1.389-1.389V6.947a4.168,4.168,0,0,1,4.168-4.168H57.071a4.168,4.168,0,0,1,4.168,4.168,1.389,1.389,0,1,0,2.779,0A6.955,6.955,0,0,0,57.071,0H20.947A6.955,6.955,0,0,0,14,6.947V34.735A1.389,1.389,0,0,0,15.389,36.124Z" transform="translate(1.283)" fill="#6836bf"/>
          <path id="Trazado_190823" data-name="Trazado 190823" d="M62.629,38a1.389,1.389,0,0,0-1.389,1.389V67.177a4.168,4.168,0,0,1-4.168,4.168H20.947a4.168,4.168,0,0,1-4.168-4.168,1.389,1.389,0,1,0-2.779,0,6.955,6.955,0,0,0,6.947,6.947H57.071a6.955,6.955,0,0,0,6.947-6.947V39.389A1.389,1.389,0,0,0,62.629,38Z" transform="translate(1.283 14.797)" fill="#6836bf"/>
          <path id="Trazado_190824" data-name="Trazado 190824" d="M29.389,4a1.389,1.389,0,0,0,0,2.779h8.336a1.389,1.389,0,0,0,0-2.779Z" transform="translate(6.735 1.558)" fill="#6836bf"/>
          <path id="Trazado_190825" data-name="Trazado 190825" d="M33.23,35H19.336a8.336,8.336,0,1,0,0,16.673H33.23A8.336,8.336,0,1,0,33.23,35Zm0,13.894H19.336a5.558,5.558,0,0,1,0-11.115H33.23a5.558,5.558,0,1,1,0,11.115Z" transform="translate(0.115 13.629)" fill="#6836bf"/>
          <ellipse id="Elipse_5378" data-name="Elipse 5378" cx="1" cy="1.5" rx="1" ry="1.5" transform="translate(20 55)" fill="#6836bf"/>
          <circle id="Elipse_5379" data-name="Elipse 5379" cx="1.5" cy="1.5" r="1.5" transform="translate(31 55)" fill="#6836bf"/>
          <path id="Trazado_190826" data-name="Trazado 190826" d="M52.451,8A19.472,19.472,0,0,0,33,27.451a19.262,19.262,0,0,0,3.568,11.2l-.779,6.705a1.389,1.389,0,0,0,1.717,1.509l7.364-1.845a1.389,1.389,0,1,0-.674-2.7l-5.419,1.358.614-5.25a1.389,1.389,0,0,0-.268-.993,16.665,16.665,0,1,1,10.77,6.489,1.39,1.39,0,1,0-.437,2.745,19.254,19.254,0,0,0,3,.235,19.451,19.451,0,1,0,0-38.9Z" transform="translate(8.682 3.115)" fill="#6836bf"/>
          <path id="Trazado_190827" data-name="Trazado 190827" d="M39.124,66.124a12.52,12.52,0,0,0,12.5-12.5A4.168,4.168,0,0,0,55.8,49.451V46.673A4.168,4.168,0,0,0,51.629,42.5a1.434,1.434,0,0,0-.008-.19,1.389,1.389,0,0,0-2.779.033l.008,1.546a1.389,1.389,0,0,0,1.389,1.389h1.389a1.389,1.389,0,0,1,1.389,1.389v2.779a1.389,1.389,0,0,1-1.389,1.389H50.239A1.389,1.389,0,0,0,48.85,52.23V53.62a9.737,9.737,0,0,1-9.726,9.726H19.673A9.737,9.737,0,0,1,9.947,53.62V52.23a1.389,1.389,0,0,0-1.389-1.389H7.168a1.389,1.389,0,0,1-1.389-1.389V46.673a1.389,1.389,0,0,1,1.389-1.389H8.558a1.389,1.389,0,0,0,1.389-1.389V42.5a9.737,9.737,0,0,1,9.726-9.726H39.124a9.632,9.632,0,0,1,4.072.9,1.39,1.39,0,1,0,1.169-2.522A12.4,12.4,0,0,0,39.124,30H19.673a12.52,12.52,0,0,0-12.5,12.5A4.168,4.168,0,0,0,3,46.673v2.779A4.168,4.168,0,0,0,7.168,53.62a12.52,12.52,0,0,0,12.5,12.5Z" transform="translate(-3 11.682)" fill="#6836bf"/>
          <path id="Trazado_190828" data-name="Trazado 190828" d="M42.389,17A1.389,1.389,0,0,0,41,18.389V29.5a1.389,1.389,0,0,0,2.779,0V25.336h2.779V29.5a1.389,1.389,0,0,0,2.779,0V18.389a1.389,1.389,0,0,0-2.779,0v4.168H43.779V18.389A1.389,1.389,0,0,0,42.389,17Z" transform="translate(11.797 6.62)" fill="#6836bf"/>
          <path id="Trazado_190829" data-name="Trazado 190829" d="M49,27.947a1.389,1.389,0,0,0,2.779,0V22.389a1.389,1.389,0,1,0-2.779,0Z" transform="translate(14.912 8.177)" fill="#6836bf"/>
          <circle id="Elipse_5380" data-name="Elipse 5380" cx="1.5" cy="1.5" r="1.5" transform="translate(64 23)" fill="#6836bf"/>
        </g>
      </g>
      <g id="Page-1" transform="translate(751.801 3745.341)">
        <g id="_030---Laptop-Life-Chat" data-name="030---Laptop-Life-Chat">
          <g id="Grupo_134999" data-name="Grupo 134999">
            <path id="Shape" d="M89.91,63.557V7.751A7.76,7.76,0,0,0,82.159,0H10.851A7.76,7.76,0,0,0,3.1,7.751V63.557a3.1,3.1,0,0,0-3.1,3.1v4.651A10.864,10.864,0,0,0,10.851,82.159H82.159A10.864,10.864,0,0,0,93.01,71.308V66.657A3.1,3.1,0,0,0,89.91,63.557ZM10.851,3.1H82.159A4.651,4.651,0,0,1,86.81,7.751V63.557H52.365L50.35,55.522a13.917,13.917,0,0,0-12.8-10.541A12.369,12.369,0,0,0,39.9,40.3H40.3a6.17,6.17,0,0,0,4.651-10.259V27.9a17.052,17.052,0,0,0-34.1,0v2.142A6.17,6.17,0,0,0,15.5,40.3h.408a12.369,12.369,0,0,0,2.352,4.682A13.916,13.916,0,0,0,6.2,53.337V7.751A4.651,4.651,0,0,1,10.851,3.1ZM15.5,55.806a1.55,1.55,0,0,0-1.55,1.55v6.2H6.638l1.826-7.286A10.816,10.816,0,0,1,18.6,48.088v2.387a4.651,4.651,0,0,0,5.564,4.556l2.187-.434v8.96h-9.3v-6.2A1.55,1.55,0,0,0,15.5,55.806Zm0-24.8v6.2a3.1,3.1,0,1,1,0-6.2Zm0-3.1a6.106,6.106,0,0,0-1.55.22V27.9a13.952,13.952,0,1,1,27.9,0v.22a6.106,6.106,0,0,0-1.55-.22H40.2a12.391,12.391,0,0,0-24.589,0Zm24.8,27.9a1.55,1.55,0,0,0-1.55,1.55v6.2h-9.3V54.6l2.187.437A4.651,4.651,0,0,0,37.2,50.475V48.088a10.816,10.816,0,0,1,10.138,8.183l1.826,7.286H41.855v-6.2A1.55,1.55,0,0,0,40.3,55.806ZM21.7,48.055h.211a12.287,12.287,0,0,0,4.44,1.443v1.936l-2.79.56a1.55,1.55,0,0,1-1.86-1.519Zm12.191,0H34.1v2.42a1.55,1.55,0,0,1-1.86,1.519l-2.79-.56V49.5A12.287,12.287,0,0,0,33.893,48.055Zm-5.99-1.55a9.31,9.31,0,0,1-9.3-9.3V32.678c3.072.169,9.27.14,12.231-2.511.067-.057.13-.118.192-.178A9.2,9.2,0,0,0,37.2,33.974V37.2c0,.172-.017.341-.026.512L30.706,40.3H27.9a1.55,1.55,0,1,0,0,3.1H31a1.55,1.55,0,0,0,.575-.11l4.585-1.834A9.3,9.3,0,0,1,27.9,46.505Zm9.3-15.686a6.991,6.991,0,0,1-4.7-4.843,1.55,1.55,0,0,0-3.054.377,1.883,1.883,0,0,1-.687,1.5c-1.823,1.632-6.722,1.921-10.164,1.719v-.122a9.3,9.3,0,1,1,18.6,0ZM40.3,37.2V31a3.1,3.1,0,1,1,0,6.2ZM32.554,66.657h27.9v1.55a3.1,3.1,0,0,1-3.1,3.1h-21.7a3.1,3.1,0,0,1-3.1-3.1ZM89.91,71.308a7.76,7.76,0,0,1-7.751,7.751H10.851A7.76,7.76,0,0,1,3.1,71.308V66.657H29.453v1.55a6.2,6.2,0,0,0,6.2,6.2h21.7a6.2,6.2,0,0,0,6.2-6.2v-1.55H89.91Z" fill="#6836bf"/>
            <path id="Shape-2" data-name="Shape" d="M17.2,45H12.55a1.55,1.55,0,1,0,0,3.1H17.2a1.55,1.55,0,0,0,0-3.1Z" transform="translate(6.052 24.758)" fill="#6836bf"/>
            <ellipse id="Oval" cx="1.841" cy="1.381" rx="1.841" ry="1.381" transform="translate(7.75 69.836)" fill="#6836bf"/>
            <circle id="Oval-2" data-name="Oval" cx="1.381" cy="1.381" r="1.381" transform="translate(12.353 69.836)" fill="#6836bf"/>
            <path id="Shape-3" data-name="Shape" d="M37.2,28.8h1.4c.073.026.155.068.155,0v3.1a3.068,3.068,0,0,0,1.8,2.817,3.128,3.128,0,0,0,1.305.288,3.071,3.071,0,0,0,1.938-.693l7.8-5.426a1.5,1.5,0,0,0,.126-.087h8.727a6.2,6.2,0,0,0,6.2-6.2V10.2a6.2,6.2,0,0,0-6.2-6.2H37.2A6.2,6.2,0,0,0,31,10.2V22.6A6.2,6.2,0,0,0,37.2,28.8ZM34.1,10.2a3.1,3.1,0,0,1,3.1-3.1H60.453a3.1,3.1,0,0,1,3.1,3.1V22.6a3.1,3.1,0,0,1-3.1,3.1H51.726a3.11,3.11,0,0,0-1.947.687l-7.8,5.426q-.064.041-.124.088V28.8a3.339,3.339,0,0,0-2.88-3.085,1.5,1.5,0,0,0-.22-.015H37.2a3.1,3.1,0,0,1-3.1-3.1Z" transform="translate(17.055 2.201)" fill="#6836bf"/>
            <path id="Shape-4" data-name="Shape" d="M36.55,12.1H56.7a1.55,1.55,0,1,0,0-3.1H36.55a1.55,1.55,0,1,0,0,3.1Z" transform="translate(19.256 4.952)" fill="#6836bf"/>
            <path id="Shape-5" data-name="Shape" d="M36.55,16.1H47.4a1.55,1.55,0,1,0,0-3.1H36.55a1.55,1.55,0,1,0,0,3.1Z" transform="translate(19.256 7.152)" fill="#6836bf"/>
          </g>
        </g>
      </g>
      <g id="pregunta-y-respuesta" transform="translate(1022.312 3585.928)">
        <path id="Trazado_190801" data-name="Trazado 190801" d="M78.385,2.434H21.941A5.948,5.948,0,0,0,16,8.375V42.733A2.971,2.971,0,0,0,20.619,45.2l6.229-4.152H78.385a5.948,5.948,0,0,0,5.941-5.941V8.375a5.948,5.948,0,0,0-5.941-5.941Zm2.971,32.678a2.974,2.974,0,0,1-2.971,2.971H26.4a1.487,1.487,0,0,0-.824.25l-6.6,4.4V8.375A2.974,2.974,0,0,1,21.941,5.4H78.385a2.974,2.974,0,0,1,2.971,2.971Z" transform="translate(6.795 0)" fill="#6836bf"/>
        <path id="Trazado_190802" data-name="Trazado 190802" d="M51.868,6.434A13.384,13.384,0,0,0,38.5,19.8c.7,17.722,26.037,17.717,26.736,0A13.384,13.384,0,0,0,51.868,6.434Zm0,23.766a10.409,10.409,0,0,1-10.4-10.4c.488-13.761,20.309-13.758,20.795,0a10.409,10.409,0,0,1-10.4,10.4Z" transform="translate(17.715 1.941)" fill="#6836bf"/>
        <path id="Trazado_190803" data-name="Trazado 190803" d="M50.034,9.462A5.567,5.567,0,0,0,43.506,15.4a1.485,1.485,0,1,0,2.971,0,2.5,2.5,0,0,1,2.385-2.971h1.172a2.387,2.387,0,0,1,2.385,2.385c.083,1.326-1.185,2.119-2.169,2.723-1.714.94-3.8,5.312-.8,5.758a1.486,1.486,0,0,0,1.485-1.485,2.161,2.161,0,0,1,.964-1.8c5.452-2.7,4.254-10.221-1.863-10.55Z" transform="translate(20.136 3.369)" fill="#6836bf"/>
        <path id="Trazado_190804" data-name="Trazado 190804" d="M47.985,19.43a1.485,1.485,0,1,0,1.485,1.485,1.485,1.485,0,0,0-1.485-1.485Z" transform="translate(21.598 8.249)" fill="#6836bf"/>
        <path id="Trazado_190805" data-name="Trazado 190805" d="M39.31,8.434H21.485a1.485,1.485,0,1,0,0,2.971H39.31a1.485,1.485,0,1,0,0-2.971Z" transform="translate(8.736 2.912)" fill="#6836bf"/>
        <path id="Trazado_190806" data-name="Trazado 190806" d="M39.31,13.434H21.485a1.485,1.485,0,1,0,0,2.971H39.31a1.485,1.485,0,1,0,0-2.971Z" transform="translate(8.736 5.339)" fill="#6836bf"/>
        <path id="Trazado_190807" data-name="Trazado 190807" d="M39.31,18.434H21.485a1.485,1.485,0,1,0,0,2.971H39.31a1.485,1.485,0,1,0,0-2.971Z" transform="translate(8.736 7.766)" fill="#6836bf"/>
        <path id="Trazado_190808" data-name="Trazado 190808" d="M64.385,32.434H7.941A5.948,5.948,0,0,0,2,38.375V65.111a5.948,5.948,0,0,0,5.941,5.941H59.479L65.708,75.2a2.991,2.991,0,0,0,4.619-2.472V38.375a5.948,5.948,0,0,0-5.941-5.941Zm2.971,40.3-6.6-4.4a1.487,1.487,0,0,0-.824-.249H7.941a2.974,2.974,0,0,1-2.971-2.971V38.375A2.974,2.974,0,0,1,7.941,35.4H64.385a2.974,2.974,0,0,1,2.971,2.971s.008,34.363,0,34.358Z" transform="translate(0 14.561)" fill="#6836bf"/>
        <path id="Trazado_190809" data-name="Trazado 190809" d="M39.368,36.434A13.384,13.384,0,0,0,26,49.8c.7,17.722,26.037,17.717,26.736,0A13.384,13.384,0,0,0,39.368,36.434Zm0,23.766a10.409,10.409,0,0,1-10.4-10.4c.488-13.761,20.309-13.758,20.795,0A10.409,10.409,0,0,1,39.368,60.2Z" transform="translate(11.648 16.502)" fill="#6836bf"/>
        <path id="Trazado_190810" data-name="Trazado 190810" d="M26.81,38.434H8.985a1.485,1.485,0,1,0,0,2.971H26.81a1.485,1.485,0,1,0,0-2.971Z" transform="translate(2.669 17.473)" fill="#6836bf"/>
        <path id="Trazado_190811" data-name="Trazado 190811" d="M26.81,43.434H8.985a1.485,1.485,0,1,0,0,2.971H26.81a1.485,1.485,0,1,0,0-2.971Z" transform="translate(2.669 19.899)" fill="#6836bf"/>
        <path id="Trazado_190812" data-name="Trazado 190812" d="M26.81,48.434H8.985a1.485,1.485,0,1,0,0,2.971H26.81a1.485,1.485,0,1,0,0-2.971Z" transform="translate(2.669 22.326)" fill="#6836bf"/>
        <path id="Trazado_190813" data-name="Trazado 190813" d="M40.347,42.869,35.456,47.76l-1.921-1.921a1.485,1.485,0,1,0-2.1,2.1l2.971,2.97a1.485,1.485,0,0,0,2.1,0l5.941-5.941a1.485,1.485,0,1,0-2.1-2.1Z" transform="translate(14.075 19.414)" fill="#6836bf"/>
      </g>
    </g>
    <g id="Grupo_135148" data-name="Grupo 135148" transform="translate(-9814.5 -8484.9)">
      <text id="Métodos_de_respuesta" data-name="Métodos de respuesta" transform="translate(190 573.2)" fill="#12263f" font-size="20" font-family="Roboto-Black, Roboto" font-weight="800"><tspan x="0" y="19">Métodos de respuesta</tspan></text>
    </g>
  </g>
</svg>
