<svg xmlns="http://www.w3.org/2000/svg" width="80.585" height="88.921" viewBox="0 0 80.585 88.921">
  <g id="Grupo_135193" data-name="Grupo 135193" transform="translate(9883.22 6732.035)">
    <g id="Grupo_135192" data-name="Grupo 135192">
      <g id="_07_Chat_bot" data-name="07 Chat bot" transform="translate(-9886.22 -6732.035)">
        <g id="Grupo_134998" data-name="Grupo 134998" transform="translate(3)">
          <path id="Trazado_190822" data-name="Trazado 190822" d="M15.389,36.124a1.389,1.389,0,0,0,1.389-1.389V6.947a4.168,4.168,0,0,1,4.168-4.168H57.071a4.168,4.168,0,0,1,4.168,4.168,1.389,1.389,0,1,0,2.779,0A6.955,6.955,0,0,0,57.071,0H20.947A6.955,6.955,0,0,0,14,6.947V34.735A1.389,1.389,0,0,0,15.389,36.124Z" transform="translate(1.283)" fill="#6836bf"/>
          <path id="Trazado_190823" data-name="Trazado 190823" d="M62.629,38a1.389,1.389,0,0,0-1.389,1.389V67.177a4.168,4.168,0,0,1-4.168,4.168H20.947a4.168,4.168,0,0,1-4.168-4.168,1.389,1.389,0,1,0-2.779,0,6.955,6.955,0,0,0,6.947,6.947H57.071a6.955,6.955,0,0,0,6.947-6.947V39.389A1.389,1.389,0,0,0,62.629,38Z" transform="translate(1.283 14.797)" fill="#6836bf"/>
          <path id="Trazado_190824" data-name="Trazado 190824" d="M29.389,4a1.389,1.389,0,0,0,0,2.779h8.336a1.389,1.389,0,0,0,0-2.779Z" transform="translate(6.735 1.558)" fill="#6836bf"/>
          <path id="Trazado_190825" data-name="Trazado 190825" d="M33.23,35H19.336a8.336,8.336,0,1,0,0,16.673H33.23A8.336,8.336,0,1,0,33.23,35Zm0,13.894H19.336a5.558,5.558,0,0,1,0-11.115H33.23a5.558,5.558,0,1,1,0,11.115Z" transform="translate(0.115 13.629)" fill="#6836bf"/>
          <ellipse id="Elipse_5378" data-name="Elipse 5378" cx="1" cy="1.5" rx="1" ry="1.5" transform="translate(20 55)" fill="#6836bf"/>
          <circle id="Elipse_5379" data-name="Elipse 5379" cx="1.5" cy="1.5" r="1.5" transform="translate(31 55)" fill="#6836bf"/>
          <path id="Trazado_190826" data-name="Trazado 190826" d="M52.451,8A19.472,19.472,0,0,0,33,27.451a19.262,19.262,0,0,0,3.568,11.2l-.779,6.705a1.389,1.389,0,0,0,1.717,1.509l7.364-1.845a1.389,1.389,0,1,0-.674-2.7l-5.419,1.358.614-5.25a1.389,1.389,0,0,0-.268-.993,16.665,16.665,0,1,1,10.77,6.489,1.39,1.39,0,1,0-.437,2.745,19.254,19.254,0,0,0,3,.235,19.451,19.451,0,1,0,0-38.9Z" transform="translate(8.682 3.115)" fill="#6836bf"/>
          <path id="Trazado_190827" data-name="Trazado 190827" d="M39.124,66.124a12.52,12.52,0,0,0,12.5-12.5A4.168,4.168,0,0,0,55.8,49.451V46.673A4.168,4.168,0,0,0,51.629,42.5a1.434,1.434,0,0,0-.008-.19,1.389,1.389,0,0,0-2.779.033l.008,1.546a1.389,1.389,0,0,0,1.389,1.389h1.389a1.389,1.389,0,0,1,1.389,1.389v2.779a1.389,1.389,0,0,1-1.389,1.389H50.239A1.389,1.389,0,0,0,48.85,52.23V53.62a9.737,9.737,0,0,1-9.726,9.726H19.673A9.737,9.737,0,0,1,9.947,53.62V52.23a1.389,1.389,0,0,0-1.389-1.389H7.168a1.389,1.389,0,0,1-1.389-1.389V46.673a1.389,1.389,0,0,1,1.389-1.389H8.558a1.389,1.389,0,0,0,1.389-1.389V42.5a9.737,9.737,0,0,1,9.726-9.726H39.124a9.632,9.632,0,0,1,4.072.9,1.39,1.39,0,1,0,1.169-2.522A12.4,12.4,0,0,0,39.124,30H19.673a12.52,12.52,0,0,0-12.5,12.5A4.168,4.168,0,0,0,3,46.673v2.779A4.168,4.168,0,0,0,7.168,53.62a12.52,12.52,0,0,0,12.5,12.5Z" transform="translate(-3 11.682)" fill="#6836bf"/>
          <path id="Trazado_190828" data-name="Trazado 190828" d="M42.389,17A1.389,1.389,0,0,0,41,18.389V29.5a1.389,1.389,0,0,0,2.779,0V25.336h2.779V29.5a1.389,1.389,0,0,0,2.779,0V18.389a1.389,1.389,0,0,0-2.779,0v4.168H43.779V18.389A1.389,1.389,0,0,0,42.389,17Z" transform="translate(11.797 6.62)" fill="#6836bf"/>
          <path id="Trazado_190829" data-name="Trazado 190829" d="M49,27.947a1.389,1.389,0,0,0,2.779,0V22.389a1.389,1.389,0,1,0-2.779,0Z" transform="translate(14.912 8.177)" fill="#6836bf"/>
          <circle id="Elipse_5380" data-name="Elipse 5380" cx="1.5" cy="1.5" r="1.5" transform="translate(64 23)" fill="#6836bf"/>
        </g>
      </g>
    </g>
  </g>
</svg>
