<svg xmlns="http://www.w3.org/2000/svg" width="89.121" height="87.814" viewBox="0 0 89.121 87.814">
  <g id="Grupo_135190" data-name="Grupo 135190" transform="translate(9345.695 6727.674)">
    <g id="pregunta-y-respuesta" transform="translate(-9347.695 -6730.107)">
      <path id="Trazado_190801" data-name="Trazado 190801" d="M78.385,2.434H21.941A5.948,5.948,0,0,0,16,8.375V42.733A2.971,2.971,0,0,0,20.619,45.2l6.229-4.152H78.385a5.948,5.948,0,0,0,5.941-5.941V8.375a5.948,5.948,0,0,0-5.941-5.941Zm2.971,32.678a2.974,2.974,0,0,1-2.971,2.971H26.4a1.487,1.487,0,0,0-.824.25l-6.6,4.4V8.375A2.974,2.974,0,0,1,21.941,5.4H78.385a2.974,2.974,0,0,1,2.971,2.971Z" transform="translate(6.795 0)" fill="#6836bf"/>
      <path id="Trazado_190802" data-name="Trazado 190802" d="M51.868,6.434A13.384,13.384,0,0,0,38.5,19.8c.7,17.722,26.037,17.717,26.736,0A13.384,13.384,0,0,0,51.868,6.434Zm0,23.766a10.409,10.409,0,0,1-10.4-10.4c.488-13.761,20.309-13.758,20.795,0a10.409,10.409,0,0,1-10.4,10.4Z" transform="translate(17.715 1.941)" fill="#6836bf"/>
      <path id="Trazado_190803" data-name="Trazado 190803" d="M50.034,9.462A5.567,5.567,0,0,0,43.506,15.4a1.485,1.485,0,1,0,2.971,0,2.5,2.5,0,0,1,2.385-2.971h1.172a2.387,2.387,0,0,1,2.385,2.385c.083,1.326-1.185,2.119-2.169,2.723-1.714.94-3.8,5.312-.8,5.758a1.486,1.486,0,0,0,1.485-1.485,2.161,2.161,0,0,1,.964-1.8c5.452-2.7,4.254-10.221-1.863-10.55Z" transform="translate(20.136 3.369)" fill="#6836bf"/>
      <path id="Trazado_190804" data-name="Trazado 190804" d="M47.985,19.43a1.485,1.485,0,1,0,1.485,1.485,1.485,1.485,0,0,0-1.485-1.485Z" transform="translate(21.598 8.249)" fill="#6836bf"/>
      <path id="Trazado_190805" data-name="Trazado 190805" d="M39.31,8.434H21.485a1.485,1.485,0,1,0,0,2.971H39.31a1.485,1.485,0,1,0,0-2.971Z" transform="translate(8.736 2.912)" fill="#6836bf"/>
      <path id="Trazado_190806" data-name="Trazado 190806" d="M39.31,13.434H21.485a1.485,1.485,0,1,0,0,2.971H39.31a1.485,1.485,0,1,0,0-2.971Z" transform="translate(8.736 5.339)" fill="#6836bf"/>
      <path id="Trazado_190807" data-name="Trazado 190807" d="M39.31,18.434H21.485a1.485,1.485,0,1,0,0,2.971H39.31a1.485,1.485,0,1,0,0-2.971Z" transform="translate(8.736 7.766)" fill="#6836bf"/>
      <path id="Trazado_190808" data-name="Trazado 190808" d="M64.385,32.434H7.941A5.948,5.948,0,0,0,2,38.375V65.111a5.948,5.948,0,0,0,5.941,5.941H59.479L65.708,75.2a2.991,2.991,0,0,0,4.619-2.472V38.375a5.948,5.948,0,0,0-5.941-5.941Zm2.971,40.3-6.6-4.4a1.487,1.487,0,0,0-.824-.249H7.941a2.974,2.974,0,0,1-2.971-2.971V38.375A2.974,2.974,0,0,1,7.941,35.4H64.385a2.974,2.974,0,0,1,2.971,2.971s.008,34.363,0,34.358Z" transform="translate(0 14.561)" fill="#6836bf"/>
      <path id="Trazado_190809" data-name="Trazado 190809" d="M39.368,36.434A13.384,13.384,0,0,0,26,49.8c.7,17.722,26.037,17.717,26.736,0A13.384,13.384,0,0,0,39.368,36.434Zm0,23.766a10.409,10.409,0,0,1-10.4-10.4c.488-13.761,20.309-13.758,20.795,0A10.409,10.409,0,0,1,39.368,60.2Z" transform="translate(11.648 16.502)" fill="#6836bf"/>
      <path id="Trazado_190810" data-name="Trazado 190810" d="M26.81,38.434H8.985a1.485,1.485,0,1,0,0,2.971H26.81a1.485,1.485,0,1,0,0-2.971Z" transform="translate(2.669 17.473)" fill="#6836bf"/>
      <path id="Trazado_190811" data-name="Trazado 190811" d="M26.81,43.434H8.985a1.485,1.485,0,1,0,0,2.971H26.81a1.485,1.485,0,1,0,0-2.971Z" transform="translate(2.669 19.899)" fill="#6836bf"/>
      <path id="Trazado_190812" data-name="Trazado 190812" d="M26.81,48.434H8.985a1.485,1.485,0,1,0,0,2.971H26.81a1.485,1.485,0,1,0,0-2.971Z" transform="translate(2.669 22.326)" fill="#6836bf"/>
      <path id="Trazado_190813" data-name="Trazado 190813" d="M40.347,42.869,35.456,47.76l-1.921-1.921a1.485,1.485,0,1,0-2.1,2.1l2.971,2.97a1.485,1.485,0,0,0,2.1,0l5.941-5.941a1.485,1.485,0,1,0-2.1-2.1Z" transform="translate(14.075 19.414)" fill="#6836bf"/>
    </g>
  </g>
</svg>
