<svg xmlns="http://www.w3.org/2000/svg" width="87.412" height="87.412" viewBox="0 0 87.412 87.412">
  <g id="Grupo_135189" data-name="Grupo 135189" transform="translate(9345.695 7041.451)">
    <g id="conversacion" transform="translate(-9345.695 -7041.451)">
      <g id="Grupo_134983" data-name="Grupo 134983" transform="translate(0 29.706)">
        <g id="Grupo_134982" data-name="Grupo 134982">
          <path id="Trazado_190814" data-name="Trazado 190814" d="M59.071,198.755a1.707,1.707,0,0,0-1.707,1.707v11.78a8.546,8.546,0,0,1-8.536,8.536H30.395a1.707,1.707,0,0,0-1.707,1.706l0,3.394L24.61,221.8a1.708,1.708,0,0,0-1.566-1.026H11.951a8.546,8.546,0,0,1-8.536-8.536V185.951a8.546,8.546,0,0,1,8.536-8.536H29.194a1.707,1.707,0,1,0,0-3.415H11.951A11.964,11.964,0,0,0,0,185.951v26.292a11.964,11.964,0,0,0,11.951,11.951H22.17l7.012,7.012A1.707,1.707,0,0,0,32.1,230l0-5.806H48.828a11.964,11.964,0,0,0,11.951-11.951v-11.78A1.707,1.707,0,0,0,59.071,198.755Z" transform="translate(0 -174)" fill="#6836bf"/>
        </g>
      </g>
      <g id="Grupo_134985" data-name="Grupo 134985" transform="translate(33.462)">
        <g id="Grupo_134984" data-name="Grupo 134984">
          <path id="Trazado_190815" data-name="Trazado 190815" d="M225.135,0h-4.321a24.814,24.814,0,1,0,0,49.629h4.321a24.862,24.862,0,0,0,6.3-.807l6.383,6.379a1.707,1.707,0,0,0,2.914-1.208V44.116a25.052,25.052,0,0,0,6.523-8.042,24.546,24.546,0,0,0,2.7-11.26A24.843,24.843,0,0,0,225.135,0ZM238,41.919a1.708,1.708,0,0,0-.68,1.364v6.59L233.138,45.7a1.706,1.706,0,0,0-1.708-.424,21.406,21.406,0,0,1-6.294.941h-4.321a21.4,21.4,0,1,1,0-42.8h4.321A21.4,21.4,0,0,1,238,41.919Z" transform="translate(-196)" fill="#6836bf"/>
        </g>
      </g>
      <g id="Grupo_134987" data-name="Grupo 134987" transform="translate(53.687 11.962)">
        <g id="Grupo_134986" data-name="Grupo 134986">
          <path id="Trazado_190816" data-name="Trazado 190816" d="M328.9,76.783a7.228,7.228,0,0,0-14.439.509,1.707,1.707,0,1,0,3.415,0,3.814,3.814,0,0,1,4.088-3.8,3.814,3.814,0,0,1,.564,7.525,3.231,3.231,0,0,0-2.545,3.167v4.1a1.707,1.707,0,1,0,3.414,0V84.316A7.191,7.191,0,0,0,328.9,76.783Z" transform="translate(-314.462 -70.063)" fill="#6836bf"/>
        </g>
      </g>
      <g id="Grupo_134989" data-name="Grupo 134989" transform="translate(59.208 35.226)">
        <g id="Grupo_134988" data-name="Grupo 134988">
          <path id="Trazado_190817" data-name="Trazado 190817" d="M349.714,206.83a1.708,1.708,0,1,0,.5,1.207A1.72,1.72,0,0,0,349.714,206.83Z" transform="translate(-346.8 -206.33)" fill="#6836bf"/>
        </g>
      </g>
      <g id="Grupo_134991" data-name="Grupo 134991" transform="translate(9.219 52.925)">
        <g id="Grupo_134990" data-name="Grupo 134990">
          <path id="Trazado_190818" data-name="Trazado 190818" d="M91.731,310H55.707a1.707,1.707,0,0,0,0,3.415H91.731a1.707,1.707,0,0,0,0-3.415Z" transform="translate(-54 -310)" fill="#6836bf"/>
        </g>
      </g>
      <g id="Grupo_134993" data-name="Grupo 134993" transform="translate(45.243 62.486)">
        <g id="Grupo_134992" data-name="Grupo 134992">
          <path id="Trazado_190819" data-name="Trazado 190819" d="M267.914,366.5a1.706,1.706,0,1,0,.5,1.207A1.72,1.72,0,0,0,267.914,366.5Z" transform="translate(-265 -366)" fill="#6836bf"/>
        </g>
      </g>
      <g id="Grupo_134995" data-name="Grupo 134995" transform="translate(9.219 62.486)">
        <g id="Grupo_134994" data-name="Grupo 134994">
          <path id="Trazado_190820" data-name="Trazado 190820" d="M85.015,366H55.707a1.707,1.707,0,0,0,0,3.415H85.015a1.707,1.707,0,1,0,0-3.415Z" transform="translate(-54 -366)" fill="#6836bf"/>
        </g>
      </g>
      <g id="Grupo_134997" data-name="Grupo 134997" transform="translate(9.219 43.365)">
        <g id="Grupo_134996" data-name="Grupo 134996">
          <path id="Trazado_190821" data-name="Trazado 190821" d="M80.633,254H55.707a1.707,1.707,0,0,0,0,3.415H80.633a1.707,1.707,0,0,0,0-3.415Z" transform="translate(-54 -254)" fill="#6836bf"/>
        </g>
      </g>
    </g>
  </g>
</svg>
