<svg xmlns="http://www.w3.org/2000/svg" width="93.01" height="82.159" viewBox="0 0 93.01 82.159">
  <g id="Grupo_135191" data-name="Grupo 135191" transform="translate(9618.207 6570.694)">
    <g id="Page-1" transform="translate(-9618.207 -6570.694)">
      <g id="_030---Laptop-Life-Chat" data-name="030---Laptop-Life-Chat">
        <g id="Grupo_134999" data-name="Grupo 134999">
          <path id="Shape" d="M89.91,63.557V7.751A7.76,7.76,0,0,0,82.159,0H10.851A7.76,7.76,0,0,0,3.1,7.751V63.557a3.1,3.1,0,0,0-3.1,3.1v4.651A10.864,10.864,0,0,0,10.851,82.159H82.159A10.864,10.864,0,0,0,93.01,71.308V66.657A3.1,3.1,0,0,0,89.91,63.557ZM10.851,3.1H82.159A4.651,4.651,0,0,1,86.81,7.751V63.557H52.365L50.35,55.522a13.917,13.917,0,0,0-12.8-10.541A12.369,12.369,0,0,0,39.9,40.3H40.3a6.17,6.17,0,0,0,4.651-10.259V27.9a17.052,17.052,0,0,0-34.1,0v2.142A6.17,6.17,0,0,0,15.5,40.3h.408a12.369,12.369,0,0,0,2.352,4.682A13.916,13.916,0,0,0,6.2,53.337V7.751A4.651,4.651,0,0,1,10.851,3.1ZM15.5,55.806a1.55,1.55,0,0,0-1.55,1.55v6.2H6.638l1.826-7.286A10.816,10.816,0,0,1,18.6,48.088v2.387a4.651,4.651,0,0,0,5.564,4.556l2.187-.434v8.96h-9.3v-6.2A1.55,1.55,0,0,0,15.5,55.806Zm0-24.8v6.2a3.1,3.1,0,1,1,0-6.2Zm0-3.1a6.106,6.106,0,0,0-1.55.22V27.9a13.952,13.952,0,1,1,27.9,0v.22a6.106,6.106,0,0,0-1.55-.22H40.2a12.391,12.391,0,0,0-24.589,0Zm24.8,27.9a1.55,1.55,0,0,0-1.55,1.55v6.2h-9.3V54.6l2.187.437A4.651,4.651,0,0,0,37.2,50.475V48.088a10.816,10.816,0,0,1,10.138,8.183l1.826,7.286H41.855v-6.2A1.55,1.55,0,0,0,40.3,55.806ZM21.7,48.055h.211a12.287,12.287,0,0,0,4.44,1.443v1.936l-2.79.56a1.55,1.55,0,0,1-1.86-1.519Zm12.191,0H34.1v2.42a1.55,1.55,0,0,1-1.86,1.519l-2.79-.56V49.5A12.287,12.287,0,0,0,33.893,48.055Zm-5.99-1.55a9.31,9.31,0,0,1-9.3-9.3V32.678c3.072.169,9.27.14,12.231-2.511.067-.057.13-.118.192-.178A9.2,9.2,0,0,0,37.2,33.974V37.2c0,.172-.017.341-.026.512L30.706,40.3H27.9a1.55,1.55,0,1,0,0,3.1H31a1.55,1.55,0,0,0,.575-.11l4.585-1.834A9.3,9.3,0,0,1,27.9,46.505Zm9.3-15.686a6.991,6.991,0,0,1-4.7-4.843,1.55,1.55,0,0,0-3.054.377,1.883,1.883,0,0,1-.687,1.5c-1.823,1.632-6.722,1.921-10.164,1.719v-.122a9.3,9.3,0,1,1,18.6,0ZM40.3,37.2V31a3.1,3.1,0,1,1,0,6.2ZM32.554,66.657h27.9v1.55a3.1,3.1,0,0,1-3.1,3.1h-21.7a3.1,3.1,0,0,1-3.1-3.1ZM89.91,71.308a7.76,7.76,0,0,1-7.751,7.751H10.851A7.76,7.76,0,0,1,3.1,71.308V66.657H29.453v1.55a6.2,6.2,0,0,0,6.2,6.2h21.7a6.2,6.2,0,0,0,6.2-6.2v-1.55H89.91Z" fill="#6836bf"/>
          <path id="Shape-2" data-name="Shape" d="M17.2,45H12.55a1.55,1.55,0,1,0,0,3.1H17.2a1.55,1.55,0,0,0,0-3.1Z" transform="translate(6.052 24.758)" fill="#6836bf"/>
          <ellipse id="Oval" cx="1.841" cy="1.381" rx="1.841" ry="1.381" transform="translate(7.75 69.836)" fill="#6836bf"/>
          <circle id="Oval-2" data-name="Oval" cx="1.381" cy="1.381" r="1.381" transform="translate(12.353 69.836)" fill="#6836bf"/>
          <path id="Shape-3" data-name="Shape" d="M37.2,28.8h1.4c.073.026.155.068.155,0v3.1a3.068,3.068,0,0,0,1.8,2.817,3.128,3.128,0,0,0,1.305.288,3.071,3.071,0,0,0,1.938-.693l7.8-5.426a1.5,1.5,0,0,0,.126-.087h8.727a6.2,6.2,0,0,0,6.2-6.2V10.2a6.2,6.2,0,0,0-6.2-6.2H37.2A6.2,6.2,0,0,0,31,10.2V22.6A6.2,6.2,0,0,0,37.2,28.8ZM34.1,10.2a3.1,3.1,0,0,1,3.1-3.1H60.453a3.1,3.1,0,0,1,3.1,3.1V22.6a3.1,3.1,0,0,1-3.1,3.1H51.726a3.11,3.11,0,0,0-1.947.687l-7.8,5.426q-.064.041-.124.088V28.8a3.339,3.339,0,0,0-2.88-3.085,1.5,1.5,0,0,0-.22-.015H37.2a3.1,3.1,0,0,1-3.1-3.1Z" transform="translate(17.055 2.201)" fill="#6836bf"/>
          <path id="Shape-4" data-name="Shape" d="M36.55,12.1H56.7a1.55,1.55,0,1,0,0-3.1H36.55a1.55,1.55,0,1,0,0,3.1Z" transform="translate(19.256 4.952)" fill="#6836bf"/>
          <path id="Shape-5" data-name="Shape" d="M36.55,16.1H47.4a1.55,1.55,0,1,0,0-3.1H36.55a1.55,1.55,0,1,0,0,3.1Z" transform="translate(19.256 7.152)" fill="#6836bf"/>
        </g>
      </g>
    </g>
  </g>
</svg>
