<svg xmlns="http://www.w3.org/2000/svg" width="83.323" height="86.1" viewBox="0 0 83.323 86.1">
  <g id="Grupo_135194" data-name="Grupo 135194" transform="translate(9883.22 7042.795)">
    <g id="capacitacion" transform="translate(-9883.719 -7042.795)">
      <path id="Trazado_190787" data-name="Trazado 190787" d="M190.613,400.845a1.382,1.382,0,0,1-.183-.012l-.774-.1H167.6a1.389,1.389,0,0,1-1.389-1.41l.115-7.689c0-6.556,5.959-9.6,9.567-10.391a14.2,14.2,0,0,1,6.566,0c3.609.8,9.545,3.845,9.545,10.407v7.8a1.391,1.391,0,0,1-1.39,1.389Zm-21.6-2.893h20.217v-6.3c0-6.088-7.162-7.653-7.467-7.717a1.406,1.406,0,0,1-.372-.135,14.073,14.073,0,0,0-4.537.044,2.725,2.725,0,0,1-.279.089c-.306.064-7.468,1.629-7.468,7.717Zm0,0" transform="translate(-136.945 -314.745)" fill="#6836bf"/>
      <path id="Trazado_190788" data-name="Trazado 190788" d="M206.5,300.073a7.169,7.169,0,1,1,7.142-7.169A7.163,7.163,0,0,1,206.5,300.073Zm0-11.561a4.392,4.392,0,1,0,4.365,4.393A4.385,4.385,0,0,0,206.5,288.512Zm0,0" transform="translate(-164.337 -236.134)" fill="#6836bf"/>
      <path id="Trazado_190789" data-name="Trazado 190789" d="M356.333,400.842a1.424,1.424,0,0,1-.184-.012l-.771-.1H333.321a1.389,1.389,0,0,1-1.389-1.41l.115-7.689c0-6.556,5.959-9.6,9.566-10.391a14.139,14.139,0,0,1,6.565.006c3.608.794,9.543,3.842,9.543,10.405v7.8a1.388,1.388,0,0,1-1.389,1.389Zm-21.6-2.893h20.216v-6.3c0-6.088-7.161-7.653-7.467-7.717a1.379,1.379,0,0,1-.374-.136,14.211,14.211,0,0,0-4.534.044,2.429,2.429,0,0,1-.279.09c-.306.064-7.467,1.628-7.467,7.717Zm0,0" transform="translate(-273.9 -314.741)" fill="#6836bf"/>
      <path id="Trazado_190790" data-name="Trazado 190790" d="M372.212,300.073a7.169,7.169,0,1,1,7.144-7.169A7.162,7.162,0,0,1,372.212,300.073Zm0-11.561a4.392,4.392,0,1,0,4.366,4.393A4.385,4.385,0,0,0,372.212,288.512Zm0,0" transform="translate(-301.285 -236.134)" fill="#6836bf"/>
      <path id="Trazado_190791" data-name="Trazado 190791" d="M24.9,400.842a1.434,1.434,0,0,1-.185-.012l-.77-.1H1.888A1.389,1.389,0,0,1,.5,399.316l.115-7.689c0-6.556,5.959-9.6,9.567-10.391a14.139,14.139,0,0,1,6.565.006c3.609.794,9.545,3.843,9.545,10.405v7.8a1.39,1.39,0,0,1-1.39,1.389ZM3.3,397.949H23.514v-6.3c0-6.089-7.162-7.653-7.467-7.717a1.371,1.371,0,0,1-.374-.136,14.21,14.21,0,0,0-4.534.044,2.4,2.4,0,0,1-.279.09c-.305.064-7.467,1.628-7.467,7.717Zm0,0" transform="translate(0 -314.741)" fill="#6836bf"/>
      <path id="Trazado_190792" data-name="Trazado 190792" d="M40.78,300.073a7.169,7.169,0,1,1,7.142-7.169A7.164,7.164,0,0,1,40.78,300.073Zm0-11.561a4.392,4.392,0,1,0,4.365,4.393A4.386,4.386,0,0,0,40.78,288.512Zm0,0" transform="translate(-27.385 -236.134)" fill="#6836bf"/>
      <path id="Trazado_190793" data-name="Trazado 190793" d="M293.516,98.48h2.777v14.15h-2.777Zm0,0" transform="translate(-242.152 -81.385)" fill="#6836bf"/>
      <path id="Trazado_190794" data-name="Trazado 190794" d="M325.8,127.754h2.777v9.068H325.8Zm0,0" transform="translate(-268.829 -105.577)" fill="#6836bf"/>
      <path id="Trazado_190795" data-name="Trazado 190795" d="M356.9,103.625h2.777v13.257H356.9Zm0,0" transform="translate(-294.535 -85.637)" fill="#6836bf"/>
      <path id="Trazado_190796" data-name="Trazado 190796" d="M399.8,41.879h2.777V65.854H399.8Zm0,0" transform="translate(-329.99 -34.609)" fill="#6836bf"/>
      <path id="Trazado_190797" data-name="Trazado 190797" d="M207.242,37.466H166.889a1.389,1.389,0,0,1,0-2.777h38.963V2.777H159.207V27.97a1.389,1.389,0,1,1-2.777,0V1.389A1.387,1.387,0,0,1,157.819,0h49.423a1.387,1.387,0,0,1,1.389,1.389V36.077A1.388,1.388,0,0,1,207.242,37.466Zm0,0" transform="translate(-128.863 0)" fill="#6836bf"/>
      <path id="Trazado_190798" data-name="Trazado 190798" d="M57.1,28.681a7.821,7.821,0,1,1,7.79-7.821A7.813,7.813,0,0,1,57.1,28.681Zm0-12.864A5.043,5.043,0,1,0,62.11,20.86,5.033,5.033,0,0,0,57.1,15.817Zm0,0" transform="translate(-40.337 -10.776)" fill="#6836bf"/>
      <path id="Trazado_190799" data-name="Trazado 190799" d="M36.111,139.8H21.163a1.387,1.387,0,0,1-1.389-1.389V136.3a3.976,3.976,0,0,1-5.177-3.873V125.7a18.841,18.841,0,0,1,3.31-10.7,6.675,6.675,0,0,1,2.893-2.416,9.4,9.4,0,0,1,3.67-.739h8.3c.205,0,.411.008.615.025a7.686,7.686,0,0,1,5.791,3.644l3.121,4.962,6.167,3.361a4.891,4.891,0,0,1,2.39,5.807,4.773,4.773,0,0,1-6.318,2.929,1.05,1.05,0,0,1-.144-.07l-6.861-3.753-.029,9.667a1.39,1.39,0,0,1-1.39,1.383Zm-13.559-2.777H34.727l.031-10.618.007-2.166a1.388,1.388,0,0,1,1.389-1.384h0a1.388,1.388,0,0,1,1.385,1.389v0l0,1.34,8.1,4.433a1.948,1.948,0,0,0,1.512-.064,2,2,0,0,0,1.067-1.194,2.146,2.146,0,0,0-1.085-2.49l-6.485-3.534a1.389,1.389,0,0,1-.511-.481l-3.315-5.267a4.894,4.894,0,0,0-3.664-2.354c-.13-.012-.261-.017-.391-.017h-8.3a6.669,6.669,0,0,0-2.593.522A3.9,3.9,0,0,0,20.2,116.57a16.091,16.091,0,0,0-2.824,9.128v6.729a1.258,1.258,0,0,0,.936,1.253,1.2,1.2,0,0,0,1.464-1.185v-9.238a1.389,1.389,0,1,1,2.777,0Zm0,0" transform="translate(-11.651 -92.432)" fill="#6836bf"/>
      <path id="Trazado_190800" data-name="Trazado 190800" d="M196.855,120.783l9.377-13.916,2.3,1.551-9.377,13.916Zm0,0" transform="translate(-162.27 -88.316)" fill="#6836bf"/>
    </g>
  </g>
</svg>
