<svg xmlns="http://www.w3.org/2000/svg" width="89.216" height="89.216" viewBox="0 0 89.216 89.216">
  <g id="Grupo_135195" data-name="Grupo 135195" transform="translate(9507.939 7506.07)">
    <g id="Grupo_135188" data-name="Grupo 135188" transform="translate(106.676 -306.101)">
      <g id="diseno-grafico" transform="translate(-9633.116 -7218.469)">
        <path id="Trazado_190771" data-name="Trazado 190771" d="M103.661,68.879h-2.7v2.7h2.7a1.353,1.353,0,0,1,1.352,1.352v47.312H21.2V72.934a1.353,1.353,0,0,1,1.352-1.352h2.7v-2.7h-2.7A4.06,4.06,0,0,0,18.5,72.934v55.422a4.06,4.06,0,0,0,4.055,4.055h31.09c0,4.792.122,4.763-.562,6.187a7.31,7.31,0,0,0-.661,1.923H49a4.049,4.049,0,0,0-3.934,3.072l-.84,3.36a1.352,1.352,0,0,0,1.311,1.679H80.681a1.352,1.352,0,0,0,1.311-1.679l-.84-3.361a4.049,4.049,0,0,0-3.934-3.07H73.794c-.386-2.072-1.223-2.159-1.223-4.274v-3.836h31.09a4.06,4.06,0,0,0,4.055-4.055V72.934a4.06,4.06,0,0,0-4.055-4.055Zm-25.13,75.37.42,1.68H47.266l.42-1.679A1.351,1.351,0,0,1,49,143.225H77.218a1.352,1.352,0,0,1,1.312,1.023Zm-7.509-3.727H55.194a9.084,9.084,0,0,0,1.155-4.274v-3.836H69.867v3.836A9.1,9.1,0,0,0,71.022,140.522Zm33.991-12.166a1.353,1.353,0,0,1-1.352,1.352H22.555a1.353,1.353,0,0,1-1.352-1.352v-5.407h83.809Z" transform="translate(0 -40.916)" fill="#6836bf"/>
        <path id="Trazado_190772" data-name="Trazado 190772" d="M47.288,367.553h2.7v2.7h-2.7Z" transform="translate(-23.381 -283.493)" fill="#6836bf"/>
        <path id="Trazado_190773" data-name="Trazado 190773" d="M76.076,367.553h2.7v2.7h-2.7Z" transform="translate(-46.762 -283.493)" fill="#6836bf"/>
        <path id="Trazado_190774" data-name="Trazado 190774" d="M104.864,367.553h2.7v2.7h-2.7Z" transform="translate(-70.143 -283.493)" fill="#6836bf"/>
        <path id="Trazado_190775" data-name="Trazado 190775" d="M97.667,47.288h2.7v2.7h-2.7Z" transform="translate(-64.298 -23.381)" fill="#6836bf"/>
        <path id="Trazado_190776" data-name="Trazado 190776" d="M126.455,47.288h2.7v2.7h-2.7Z" transform="translate(-87.678 -23.381)" fill="#6836bf"/>
        <path id="Trazado_190777" data-name="Trazado 190777" d="M155.242,47.288h2.7v2.7h-2.7Z" transform="translate(-111.059 -23.381)" fill="#6836bf"/>
        <path id="Trazado_190778" data-name="Trazado 190778" d="M256,47.288h29.739v2.7H256Z" transform="translate(-192.892 -23.381)" fill="#6836bf"/>
        <path id="Trazado_190779" data-name="Trazado 190779" d="M135.115,76.626a4.06,4.06,0,0,0,4.055-4.055V22.555a4.06,4.06,0,0,0-4.055-4.055H72.934a4.06,4.06,0,0,0-4.055,4.055V72.571a4.06,4.06,0,0,0,4.055,4.055Zm1.352-4.055a1.353,1.353,0,0,1-1.352,1.352H90.507v-41.9h45.96ZM71.582,22.555A1.353,1.353,0,0,1,72.934,21.2h62.181a1.353,1.353,0,0,1,1.352,1.352v6.759H71.582Zm0,50.015V32.018H87.8v41.9H72.934A1.353,1.353,0,0,1,71.582,72.571Z" transform="translate(-40.916)" fill="#6836bf"/>
        <path id="Trazado_190780" data-name="Trazado 190780" d="M99.019,141.762h8.111a1.351,1.351,0,0,0,1.352-1.352V135a1.351,1.351,0,0,0-1.352-1.352H99.019A1.351,1.351,0,0,0,97.667,135v5.407a1.351,1.351,0,0,0,1.352,1.352Zm1.352-5.407h5.407v2.7h-5.407Z" transform="translate(-64.298 -93.523)" fill="#6836bf"/>
        <path id="Trazado_190781" data-name="Trazado 190781" d="M99.019,199.338h8.111a1.351,1.351,0,0,0,1.352-1.352v-5.407a1.351,1.351,0,0,0-1.352-1.352H99.019a1.351,1.351,0,0,0-1.352,1.352v5.407a1.351,1.351,0,0,0,1.352,1.352Zm1.352-5.407h5.407v2.7h-5.407Z" transform="translate(-64.298 -140.285)" fill="#6836bf"/>
        <path id="Trazado_190782" data-name="Trazado 190782" d="M99.019,256.914h8.111a1.351,1.351,0,0,0,1.352-1.352v-5.407a1.351,1.351,0,0,0-1.352-1.352H99.019a1.351,1.351,0,0,0-1.352,1.352v5.407a1.351,1.351,0,0,0,1.352,1.352Zm1.352-5.407h5.407v2.7h-5.407Z" transform="translate(-64.298 -187.047)" fill="#6836bf"/>
        <path id="Trazado_190783" data-name="Trazado 190783" d="M97.667,104.864h10.814v2.7H97.667Z" transform="translate(-64.298 -70.143)" fill="#6836bf"/>
        <path id="Trazado_190784" data-name="Trazado 190784" d="M327.97,214.17v13.518a1.351,1.351,0,0,0,1.352,1.352h13.518a1.351,1.351,0,0,0,1.352-1.352V214.17a1.351,1.351,0,0,0-1.352-1.352H329.322a1.351,1.351,0,0,0-1.352,1.352Zm2.7,1.352h10.814v10.814H330.673Z" transform="translate(-251.344 -157.82)" fill="#6836bf"/>
        <path id="Trazado_190785" data-name="Trazado 190785" d="M257.354,122.667h16.221a1.352,1.352,0,0,0,1.187-2L266.651,105.8a1.407,1.407,0,0,0-2.373,0l-8.111,14.869a1.352,1.352,0,0,0,1.187,2Zm8.111-13.4,5.833,10.7H259.631Z" transform="translate(-192.894 -70.373)" fill="#6836bf"/>
        <path id="Trazado_190786" data-name="Trazado 190786" d="M209.238,229.04c5.963,0,10.814-3.638,10.814-8.111s-4.851-8.111-10.814-8.111-10.814,3.638-10.814,8.111S203.275,229.04,209.238,229.04Zm0-13.518c4.4,0,8.111,2.476,8.111,5.407s-3.715,5.407-8.111,5.407-8.111-2.476-8.111-5.407,3.715-5.407,8.111-5.407Z" transform="translate(-146.13 -157.821)" fill="#6836bf"/>
      </g>
    </g>
  </g>
</svg>
